<?xml version="1.0" standalone="no"?>
<!DOCTYPE svg PUBLIC "-//W3C//DTD SVG 1.1//EN" "http://www.w3.org/Graphics/SVG/1.1/DTD/svg11.dtd" >
<svg xmlns="http://www.w3.org/2000/svg">
<metadata>Generated by IcoMoon</metadata>
<defs>
<font id="icomoon" horiz-adv-x="1024">
<font-face units-per-em="1024" ascent="960" descent="-64" />
<missing-glyph horiz-adv-x="1024" />
<glyph unicode="&#x20;" horiz-adv-x="512" d="" />
<glyph unicode="&#xe900;" horiz-adv-x="673" d="M238.73 111.399c-11.386 29.827-34.027 53.171-62.598 65.222l-0.751 0.281c-13.797 5.754-29.826 9.095-46.636 9.095-1.179 0-2.355-0.016-3.526-0.049l0.173 0.004c-2.511 0.185-5.438 0.29-8.392 0.29-14.766 0-28.917-2.634-42.010-7.457l0.842 0.271c-15.002-6.324-27.765-15.217-38.314-26.246l-0.040-0.042c-10.896-12.017-19.435-26.393-24.749-42.249l-0.245-0.845c-5.528-15.142-8.725-32.623-8.725-50.851s3.197-35.709 9.061-51.914l-0.336 1.063c11.821-28.863 34.384-51.286 62.59-62.648l0.759-0.27c14.783-5.732 31.89-9.054 49.774-9.054s34.992 3.321 50.741 9.38l-0.967-0.328c14.838 6.6 27.536 15.295 38.38 25.882l-0.026-0.025c10.462 11.271 18.921 24.574 24.699 39.227l0.296 0.85c5.651 15.080 9.093 32.505 9.478 50.682l0.003 0.169c-0.156 17.864-3.622 34.875-9.813 50.509l0.332-0.951zM205.116 22.194c-4.188-11.789-10.19-21.954-17.77-30.718l0.102 0.12c-7.607-8.122-16.781-14.673-27.053-19.186l-0.528-0.207c-10.694-4.092-23.062-6.462-35.984-6.462s-25.291 2.37-36.695 6.698l0.711-0.237c-11.066 4.428-20.432 11.027-27.955 19.33l-0.056 0.063c-7.479 8.642-13.481 18.808-17.462 29.935l-0.206 0.662c-3.831 11.673-6.041 25.108-6.041 39.059 0 0.509 0.003 1.019 0.009 1.527l-0.001-0.077c-0.004 0.403-0.007 0.879-0.007 1.355 0 14.133 2.209 27.75 6.3 40.524l-0.26-0.94c4.188 11.789 10.19 21.954 17.77 30.718l-0.102-0.12c8.043 8.785 17.993 15.688 29.205 20.072l0.531 0.183c9.714 4.119 21.012 6.513 32.868 6.513 1.020 0 2.036-0.017 3.048-0.052l-0.147 0.004c0.963 0.037 2.094 0.059 3.229 0.059 12.040 0 23.52-2.397 33.989-6.739l-0.588 0.217c10.868-4.554 20.072-11.132 27.524-19.33l0.056-0.063c7.479-8.642 13.481-18.808 17.462-29.935l0.206-0.662c3.85-11.304 6.072-24.325 6.072-37.865 0-1.081-0.014-2.158-0.042-3.234l0.003 0.158c-0.149-14.938-3.143-29.134-8.463-42.132l0.276 0.762z" />
<glyph unicode="&#xe901;" horiz-adv-x="673" d="M254.244 186.384v-28.012h80.156v-219.351h33.613v219.351h79.724v28.012z" />
<glyph unicode="&#xe902;" glyph-name="Direct_icon_menu" horiz-adv-x="1118" d="M999.024 853.854v-811.707h-224.78c-18.732 0-31.22-12.488-31.22-31.22s12.488-31.22 31.22-31.22h287.22v936.585h-287.22c-18.732 0-31.22-12.488-31.22-31.22s12.488-31.22 31.22-31.22c0 0 224.78 0 224.78 0zM343.415 853.854c18.732 0 31.22 12.488 31.22 31.22s-12.488 31.22-31.22 31.22h-287.22v-936.585h287.22c18.732 0 31.22 12.488 31.22 31.22s-12.488 31.22-31.22 31.22h-224.78v811.707c0 0 224.78 0 224.78 0zM555.707 510.439c-37.463 0-62.439-31.22-62.439-62.439 0-37.463 31.22-62.439 62.439-62.439 37.463 0 62.439 31.22 62.439 62.439 0 37.463-24.976 62.439-62.439 62.439z" />
<glyph unicode="&#xe903;" glyph-name="Icons_link" d="M811.909 393.374c13.381 13.851 21.629 32.741 21.629 53.556s-8.245 39.703-21.65 53.577l0.021-0.023-428.442 435.939c-12.767 13.856-31.002 22.503-51.255 22.503-0.433 0-0.863-0.005-1.293-0.012h0.064c-0.407 0.009-0.886 0.014-1.365 0.014-20.545 0-39.074-8.634-52.157-22.471l-0.032-0.035-68.55-73.905c-13.869-12.942-22.517-31.329-22.517-51.736 0-0.64 0.009-1.277 0.025-1.915l-0.002 0.094c-0.009-0.451-0.016-0.985-0.016-1.519 0-20.833 8.62-39.654 22.49-53.089l0.021-0.018 303.123-306.336-299.909-308.478c-13.872-13.115-22.506-31.644-22.506-52.189 0-0.481 0.005-0.96 0.014-1.438v0.071c-0.009-0.451-0.016-0.985-0.016-1.519 0-20.833 8.62-39.654 22.49-53.089l0.021-0.018 68.55-73.905c13.115-13.872 31.644-22.506 52.189-22.506 0.481 0 0.96 0.005 1.438 0.014h-0.071c0.366-0.007 0.796-0.012 1.229-0.012 20.255 0 38.49 8.65 51.211 22.455l0.044 0.048z" />
<glyph unicode="&#xe904;" glyph-name="Icons_action" d="M512 155.428c-60.594 0-109.714-49.12-109.714-109.714s49.12-109.714 109.714-109.714c60.594 0 109.714 49.12 109.714 109.714v0c0 60.594-49.12 109.714-109.714 109.714v0zM512 740.572c60.594 0 109.714 49.12 109.714 109.714s-49.12 109.714-109.714 109.714c-60.594 0-109.714-49.12-109.714-109.714v0c0-60.594 49.12-109.714 109.714-109.714v0zM512 557.714c-60.594 0-109.714-49.12-109.714-109.714s49.12-109.714 109.714-109.714c60.594 0 109.714 49.12 109.714 109.714v0c0 60.594-49.12 109.714-109.714 109.714v0z" />
<glyph unicode="&#xe905;" glyph-name="Icons_Autorized" d="M1022.587 427.22l-135.958 287.947c-1.392 3.161-4.063 5.541-7.339 6.51l-0.082 0.020c-1.431 0.705-3.116 1.119-4.898 1.119s-3.467-0.413-4.964-1.148l0.066 0.029-93.508-57.292-36.512-21.967c-7.137-3.563-11.952-10.811-11.952-19.185 0-3.158 0.685-6.156 1.913-8.854l-0.055 0.134 2.078-5.64c-1.463 0.486-3.148 0.767-4.898 0.767s-3.435-0.281-5.012-0.798l0.114 0.032c-4.899-1.057-10.53-1.662-16.299-1.662-18.648 0-35.82 6.322-49.488 16.938l0.182-0.136c-13.359 8.311-26.42 17.514-39.482 26.42s-27.904 19.592-42.45 29.686c-11.809 7.16-25.933 11.694-41.049 12.459l-0.213 0.009c-18.999 0-37.7 0-56.699 0h-27.311c-1.375 0.129-2.975 0.203-4.591 0.203-21.479 0-39.913-13.036-47.824-31.627l-0.129-0.339c-9.499-19.295-19.592-38.294-29.686-57.589-1.982 1.43-4.444 2.311-7.109 2.375h-0.015c-1.145-0.038-2.491-0.060-3.843-0.060-25.434 0-49.078 7.671-68.741 20.826l0.449-0.283h-3.563l2.672 5.938c0.5 1.314 0.79 2.833 0.79 4.418 0 4.475-2.302 8.411-5.787 10.69l-0.048 0.029-130.022 84.603c-1.422 0.749-3.108 1.189-4.898 1.189s-3.476-0.44-4.957-1.217l0.059 0.028c-3.5-0.867-6.305-3.282-7.69-6.458l-0.028-0.073-132.396-278.745c-0.707-1.536-1.119-3.333-1.119-5.226 0-5.199 3.108-9.672 7.568-11.662l0.082-0.032 118.147-48.683c0.67-0.134 1.439-0.21 2.226-0.21s1.557 0.077 2.301 0.223l-0.075-0.013c0.013 0 0.028 0 0.043 0 3.645 0 6.917 1.603 9.147 4.142l0.011 0.014c4.453 5.046 8.311 10.389 12.468 15.734 0.422-2.708 1.705-5.061 3.557-6.823l0.005-0.005 29.686-24.342c0.578-0.057 1.25-0.091 1.93-0.091s1.351 0.033 2.014 0.098l-0.084-0.006c-2.89-5.87-4.58-12.778-4.58-20.081 0-16.494 8.623-30.974 21.608-39.178l0.19-0.112c6.925-5.62 15.812-9.068 25.499-9.202h0.029c4.666 0.265 9.017 1.332 13.010 3.064l-0.246-0.094v-2.672c-0.573-1.934-1.279-3.607-2.145-5.18l0.068 0.134c-0.277-0.98-0.435-2.103-0.435-3.265s0.159-2.286 0.457-3.353l-0.020 0.088c1.512-20.826 13.888-38.447 31.434-47.345l0.328-0.151c4.458-1.964 9.646-3.156 15.099-3.264l0.041-0.001c8.046 0.131 15.448 2.783 21.479 7.198l-0.106-0.074c-0.125-1.213-0.198-2.62-0.198-4.043 0-6.748 1.608-13.12 4.462-18.754l-0.108 0.237c7.908-17.808 24.517-30.464 44.283-32.632l0.245-0.022h1.781c0.12-0.004 0.261-0.006 0.404-0.006 2.512 0 4.841 0.779 6.759 2.111l-0.040-0.026 5.64 3.859c6.191 3.388 11.481 7.542 15.991 12.426l0.038 0.042 2.078 2.672c-0.284-1.786-0.446-3.846-0.446-5.944 0-5.009 0.926-9.803 2.616-14.218l-0.092 0.273c6.433-15.354 21.336-25.944 38.714-25.944 1.106 0 2.202 0.043 3.286 0.128l-0.144-0.009h2.672c0.892-0.208 1.916-0.327 2.968-0.327s2.077 0.119 3.060 0.344l-0.092-0.018c5.652 2.217 10.365 5.785 13.898 10.318l0.055 0.073 2.968 4.156s0 0 0 0c9.485-11.384 23.396-18.801 39.056-19.587l0.129-0.005c5.691 0.026 11.096 1.225 15.993 3.366l-0.26-0.101c16.665 6.592 28.238 22.564 28.238 41.238 0 2.63-0.23 5.207-0.67 7.711l0.038-0.265 8.015-9.499c6.929-10.127 18.428-16.685 31.457-16.685 7.61 0 14.697 2.237 20.639 6.089l-0.148-0.091c17.778 7.611 30.007 24.956 30.007 45.157 0 1.975-0.117 3.922-0.344 5.837l0.023-0.232c6.313-4.406 14.146-7.040 22.594-7.040 9.328 0 17.906 3.211 24.688 8.587l-0.083-0.064c12.857 8.299 21.872 21.606 24.303 37.099l0.040 0.305c0.214 1.56 0.335 3.364 0.335 5.195s-0.122 3.635-0.358 5.402l0.023-0.207c7.587-6.297 17.425-10.119 28.156-10.119 0.538 0 1.073 0.010 1.606 0.028l-0.078-0.003c14.535 1.489 27.021 9.172 34.927 20.331l0.102 0.152c6.461 7.524 10.394 17.382 10.394 28.159 0 5.677-1.092 11.098-3.075 16.068l0.103-0.292c0.67-0.128 1.439-0.2 2.226-0.2s1.557 0.073 2.304 0.212l-0.077-0.011 59.37 36.81c1.836 1.392 3.194 3.328 3.841 5.565l0.019 0.075c4.453-5.046 8.609-10.389 13.062-15.734l9.203-11.281c4.587-5.010 11.112-8.18 18.382-8.311h0.023c0.982-0.203 2.11-0.318 3.265-0.318s2.283 0.116 3.374 0.337l-0.108-0.018c33.247 13.655 66.198 27.608 99.742 41.857l24.342 10.389c4.541 2.023 7.649 6.495 7.649 11.695 0 1.893-0.412 3.69-1.152 5.305l0.033-0.079zM126.092 407.331l-96.774 40.669 120.522 255.293 109.835-70.651c-34.193-86.429-79.243-160.95-134.572-226.513l0.989 1.202zM257.003 347.961v0c-4.068-5.866-8.361-11.008-13.067-15.738l0.005 0.005c-3.013-3.924-7.706-6.426-12.982-6.426-4.133 0-7.907 1.536-10.783 4.068l0.018-0.015c-6.897 4.022-11.458 11.384-11.458 19.812 0 2.466 0.39 4.841 1.114 7.066l-0.046-0.162c6.741 10.74 17.095 18.68 29.325 22.177l0.36 0.088c0.165 0.005 0.357 0.008 0.551 0.008 7.287 0 13.63-4.040 16.914-10.002l0.050-0.099c2.139-2.968 3.421-6.677 3.421-10.686s-1.282-7.718-3.458-10.741l0.037 0.055zM327.358 299.573c-5.319-6.753-10.564-12.752-16.095-18.472l0.065 0.068c-3.265-3.265-6.234-6.531-9.203-10.093-8.015-8.906-13.952-9.203-20.483-6.531-8.69 4.792-14.943 13.093-16.886 22.942l-0.034 0.213s0 2.375 0 3.563c0.862 2.631 1.867 4.889 3.069 7.021l-0.099-0.193c10.936 10.365 22.752 20.109 35.214 29.004l1.003 0.68c1.913 0.698 4.121 1.101 6.424 1.101 5.851 0 11.092-2.603 14.632-6.716l0.022-0.026c3.643-2.962 5.953-7.444 5.953-12.466 0-3.839-1.35-7.364-3.601-10.124l0.023 0.029zM280.455 340.242v0 0zM404.242 269.889c-8.906-12.468-20.78-29.686-34.139-44.528-2.899-3.001-6.222-5.566-9.878-7.607l-0.216-0.111-2.375-1.485c-9.999 1.917-18.094 8.638-21.893 17.616l-0.073 0.195c-1.212 2.129-1.927 4.676-1.927 7.39 0 4.816 2.249 9.107 5.754 11.88l0.032 0.024c6.828 6.828 13.062 14.249 19.592 21.373s11.281 13.062 17.514 19.592c3.138 3.351 7.54 5.485 12.44 5.639l0.028 0.001c4.402-0.098 8.368-1.892 11.283-4.753l-0.003 0.003c11.281-9.796 9.796-16.624 3.859-25.233zM459.754 232.485c-2.619-11.565-8.024-21.605-15.48-29.733l0.043 0.047-6.828-9.203-2.968-1.781c-13.062 0-16.92 5.64-18.999 10.686-0.835 2.114-1.32 4.563-1.32 7.124s0.485 5.010 1.366 7.259l-0.047-0.135c6.137 10.183 13.215 18.961 21.321 26.666l0.054 0.050c1.908 2.19 4.625 3.633 7.681 3.857l0.037 0.003c2.205-0.078 4.244-0.73 5.989-1.811l-0.052 0.031c8.906-5.343 9.499-8.906 9.203-12.764zM506.062 187.957c-2.006-0.688-4.318-1.084-6.722-1.084-5.533 0-10.575 2.103-14.371 5.554l0.018-0.015c8.561 13.595 13.808 30.038 14.246 47.675l0.003 0.119 7.421-9.203c5.292-6.337 9.614-13.716 12.596-21.747l0.168-0.518c1.781-7.124-4.75-16.624-13.359-20.483zM749.482 319.76c-3.631-5.742-9.582-9.737-16.504-10.674l-0.12-0.013c-6.549 0.574-12.282 3.663-16.301 8.282l-0.026 0.029c-9.499 10.686-18.702 21.67-27.904 32.654l-21.67 26.42c-15.734 18.405-31.466 37.107-47.793 55.214-4.431 4.102-10.38 6.617-16.919 6.617-0.732 0-1.457-0.032-2.174-0.093l0.093 0.006c-0.671 0.131-1.444 0.207-2.233 0.207-3.004 0-5.754-1.088-7.878-2.893l0.018 0.014c-2.731-2.249-4.459-5.63-4.459-9.416 0-0.134 0.003-0.267 0.006-0.401v0.019c0.064-0.49 0.101-1.057 0.101-1.633s-0.037-1.143-0.107-1.699l0.006 0.066c-0.339-1.533-0.533-3.293-0.533-5.098 0-5.066 1.529-9.776 4.152-13.692l-0.056 0.089 9.499-11.281c23.748-29.686 48.388-59.37 73.916-86.978 5.357-4.758 8.759-11.615 8.906-19.27v-0.026c-2.128-8.466-7.369-15.449-14.407-19.809l-0.139-0.080c-2.547-2.015-5.808-3.233-9.351-3.233s-6.804 1.218-9.383 3.258l0.032-0.024c-5.343 5.343-10.389 11.281-15.437 17.217l-18.405 21.67c-12.468 14.842-24.936 29.686-37.997 44.528-3.95 3.64-9.248 5.873-15.067 5.873-1.709 0-3.374-0.193-4.972-0.557l0.149 0.028c-3.805-0.287-7.147-2.060-9.485-4.734l-0.014-0.017c-2.57-2.577-4.16-6.134-4.16-10.061 0-0.115 0.001-0.231 0.004-0.346v0.017c-0.393-1.606-0.617-3.45-0.617-5.347 0-4.62 1.335-8.929 3.643-12.559l-0.056 0.096c8.609-10.686 17.217-21.077 26.123-31.466s13.952-16.624 20.78-25.233l3.859-4.453c5.609-5.82 10.287-12.587 13.762-20.029l0.19-0.454c2.078-5.64-5.343-17.514-16.92-23.451s-15.139-4.453-22.858 4.75c-15.139 17.812-29.686 36.216-45.122 54.324l-9.796 12.171c-4.373 6.213-11.292 10.38-19.208 10.979l-0.087 0.005c-0.063 0.001-0.136 0.001-0.209 0.001-5.712 0-10.834-2.52-14.317-6.509l-0.019-0.023c-2.918-3.477-4.691-8-4.691-12.938 0-1.092 0.087-2.163 0.254-3.208l-0.015 0.115c-3.083 2.309-6.606 4.304-10.371 5.824l-0.315 0.112c-4.991 2.114-10.783 3.408-16.86 3.561l-0.060 0.001c-3.061 30.189-28.345 53.551-59.084 53.551-9.973 0-19.373-2.459-27.624-6.805l0.325 0.156c-18.702 29.686-33.247 38.591-63.823 32.951-2.726 20.849-15.928 38.091-34.066 46.454l-0.369 0.152c-6.949 2.707-14.993 4.274-23.404 4.274-19.725 0-37.435-8.626-49.562-22.313l-0.060-0.069-13.062 10.686c40.771 55.264 77.054 118.142 105.958 184.957l2.394 6.216c15.104-8.364 32.692-14.5 51.351-17.4l0.895-0.115c-2.073-3.427-4.066-7.433-5.736-11.604l-0.2-0.568c-2.737-6.42-4.328-13.888-4.328-21.728 0-3.866 0.386-7.642 1.124-11.29l-0.061 0.364c6.656-21.312 25.318-36.877 47.88-38.873l0.21-0.015c5.319-1.38 11.426-2.174 17.719-2.174 28.633 0 53.434 16.412 65.505 40.344l0.193 0.42c4.75 10.686 10.686 20.78 16.327 29.686l4.75 8.311h3.265c2.086-0.14 4.522-0.219 6.976-0.219s4.89 0.080 7.305 0.237l-0.329-0.017c2.901 0.625 6.232 0.983 9.648 0.983s6.748-0.358 9.961-1.040l-0.313 0.055c8.609-5.046 17.514-9.499 26.123-14.249 27.018-11.702 49.757-28.73 67.763-49.907l0.217-0.26c12.171-16.327 25.826-31.763 38.887-46.606 6.531-7.124 13.062-14.546 19.295-22.265l27.013-32.061c15.734-18.702 31.169-37.404 47.2-55.809 10.389-12.468 10.984-19.295 3.265-30.873zM777.089 376.459l-12.171 14.249-42.153 49.574c-7.421 8.609-14.546 17.514-21.967 26.42s-22.265 27.013-33.841 40.372l-9.499 11.281c-12.127 15.424-25.271 29.039-39.665 41.222l-0.409 0.338c-15.014 11.597-31.936 22.349-49.81 31.501l-1.842 0.857-14.546 7.718c-8.522 5.069-18.641 8.384-29.459 9.189l-0.227 0.014c-6.828 0-13.952 0-21.67 0h-26.716c-8.564-1.227-15.831-5.955-20.418-12.662l-0.066-0.102c-6.616-11.003-13.75-24.535-20.202-38.449l-1.171-2.814c-6.042-13.9-19.654-23.443-35.493-23.443-6.797 0-13.184 1.758-18.73 4.842l0.196-0.101c-3.981 1.374-7.142 4.244-8.866 7.922l-0.040 0.093c-0.261 1.010-0.412 2.171-0.412 3.366 0 2.588 0.704 5.010 1.932 7.088l-0.036-0.065c5.64 10.686 11.281 21.373 17.217 32.061 10.984 20.78 21.967 41.262 32.061 62.635 4.74 10.471 15.097 17.625 27.124 17.625 0.902 0 1.793-0.040 2.674-0.119l-0.114 0.008h27.904c18.405 0 36.81 0 54.918 0 11.019-0.614 21.168-3.843 29.99-9.073l-0.305 0.167c13.952-8.609 27.608-18.108 40.965-27.608s27.013-18.702 40.669-27.311c17.614-12.685 39.625-20.289 63.412-20.289 5.908 0 11.707 0.469 17.361 1.372l-0.622-0.082c3.563-7.718 6.531-15.734 9.499-23.748s5.64-14.546 8.609-21.67c22.39-52.411 47.629-97.398 77.008-139.267l-1.608 2.418zM983.105 423.064l-97.071-40.965-8.906 10.686c-13.359 15.734-27.013 32.357-38.887 49.574-34.029 51.245-62.74 110.233-83.155 172.967l-1.448 5.146 35.622 21.373 81.932 50.465 124.678-263.605z" />
<glyph unicode="&#xe906;" glyph-name="Icons_Availability-issues, AIO, AIB" d="M699.47 635.076c-3.569 3.598-8.516 5.825-13.982 5.825s-10.413-2.227-13.98-5.823l-0.002-0.002-159.508-157.538-159.508 157.538c-3.569 3.598-8.516 5.825-13.982 5.825s-10.413-2.227-13.98-5.823l-0.002-0.002c-3.677-3.457-5.967-8.353-5.967-13.784s2.29-10.326 5.957-13.775l0.010-0.008 159.508-159.508-159.508-159.508c-3.598-3.569-5.825-8.516-5.825-13.982s2.227-10.413 5.823-13.98l0.002-0.002c3.733-3.396 8.709-5.485 14.173-5.514h0.007c0.068-0.002 0.146-0.002 0.225-0.002 5.349 0 10.169 2.269 13.549 5.898l0.010 0.012 159.508 157.538 159.508-157.538c3.39-3.64 8.209-5.91 13.559-5.91 0.080 0 0.159 0 0.237 0.002h-0.012c5.47 0.029 10.445 2.117 14.195 5.529l-0.017-0.015c3.598 3.569 5.825 8.516 5.825 13.982s-2.227 10.413-5.823 13.98l-159.51 159.51 159.508 157.538c4.346 3.493 7.104 8.808 7.104 14.769s-2.758 11.276-7.067 14.74l-0.037 0.029zM512 959.998c-272.977-5.91-492.004-228.595-492.004-502.437 0-3.363 0.034-6.718 0.098-10.064l-0.008 0.501c-0.058-2.846-0.091-6.201-0.091-9.563 0-273.842 219.028-496.527 491.455-502.427l0.548-0.010c272.977 5.91 492.004 228.595 492.004 502.437 0 3.363-0.034 6.718-0.098 10.064l0.008-0.501c0.058 2.846 0.091 6.201 0.091 9.563 0 273.842-219.028 496.527-491.455 502.427l-0.548 0.010zM512-24.615c-251.052 6.113-452.233 211.078-452.233 463.033 0 3.369 0.036 6.729 0.108 10.081l-0.008-0.499c-0.063 2.852-0.1 6.212-0.1 9.582 0 251.955 201.181 456.92 451.668 463.023l0.565 0.010c251.052-6.113 452.233-211.078 452.233-463.033 0-3.369-0.036-6.729-0.108-10.081l0.008 0.499c0.063-2.852 0.1-6.212 0.1-9.582 0-251.955-201.181-456.92-451.668-463.023l-0.565-0.010z" />
<glyph unicode="&#xe907;" glyph-name="Icons_Bookmark-and-Comments" d="M44.663 959.999v-1024h75.084l392.253 222.664 392.253-222.664h75.084v1024zM914.608 4.613l-402.608 228.491-31.718-18.123-370.893-210.365v890.659h805.218zM244.026 660.309h535.948v-89.324h-535.948v89.324zM244.026 454.472h535.948v-89.324h-535.948v89.324z" />
<glyph unicode="&#xe908;" glyph-name="Icons_connectivty-issues, MIO" d="M277.725 721.016l-117.32 164.467-29.604-21.93 117.32-164.467 29.604 21.93zM447.309 953.831l-36.183 5.848-32.163-200.286 36.549-5.848 31.797 200.286zM537.584 214.091l-109.645-158.985c-30.715-44.341-81.327-73.014-138.635-73.014-36.239 0-69.801 11.466-97.256 30.969l0.52-0.35c-43.847 31.759-72.041 82.797-72.041 140.421 0 36.582 11.362 70.508 30.749 98.446l-0.375-0.57 159.717 231.351c30.627 44.42 81.228 73.162 138.543 73.162 36.291 0 69.891-11.524 97.341-31.112l-0.51 0.347c3.614-2.632 8.143-4.212 13.039-4.212 7.604 0 14.319 3.807 18.343 9.619l0.049 0.074c2.582 3.708 4.124 8.306 4.124 13.264 0 7.736-3.755 14.594-9.542 18.853l-0.064 0.046c-34.127 24.254-76.647 38.774-122.557 38.774-72.616 0-136.748-36.324-175.215-91.795l-0.462-0.705-160.083-231.351c-24.054-34.683-38.426-77.663-38.426-124.002 0-72.953 35.624-137.586 90.426-177.452l0.63-0.437c34.212-24.433 76.882-39.066 122.972-39.066 72.586 0 136.693 36.294 175.167 91.725l0.462 0.704 109.645 158.985c2.582 3.708 4.124 8.306 4.124 13.264 0 7.736-3.755 14.594-9.542 18.853l-0.064 0.046c-3.581 2.56-8.048 4.093-12.873 4.093-7.709 0-14.505-3.912-18.508-9.861l-0.050-0.080zM203.531 601.503l-197.726 32.529-5.848-36.549 197.726-32.529 5.848 36.549zM1007.23 722.112c-32.594 78.492-108.634 132.686-197.33 132.686-29.975 0-58.504-6.189-84.378-17.36l1.382 0.531-209.057-88.813c-8.21-3.64-13.834-11.719-13.834-21.111 0-3.197 0.652-6.242 1.83-9.010l-0.057 0.151c3.537-8.188 11.543-13.815 20.862-13.815 3.155 0 6.161 0.645 8.89 1.811l-0.148-0.057 209.057 88.813c18.834 7.906 40.723 12.499 63.686 12.499 69.737 0 129.578-42.367 155.189-102.766l0.416-1.104c8.364-19.547 13.228-42.293 13.228-66.175 0-70.249-42.078-130.668-102.405-157.432l-1.098-0.435-273.016-116.223c-19.348-8.394-41.884-13.278-65.558-13.278-70.032 0-130.086 42.727-155.513 103.536l-0.413 1.112c-3.398 8.239-11.368 13.931-20.667 13.931-3.234 0-6.307-0.688-9.079-1.927l0.141 0.057c-8.141-3.669-13.707-11.712-13.707-21.055 0-3.080 0.605-6.018 1.701-8.702l-0.055 0.154c32.295-79.4 108.855-134.359 198.251-134.359 31.159 0 60.757 6.676 87.444 18.677l-1.349-0.542 273.016 116.223c76.865 35.208 129.297 111.467 129.297 199.973 0 30.311-6.15 59.187-17.27 85.444l0.54-1.439z" />
<glyph unicode="&#xe909;" glyph-name="Icons_Distribution-health-score" d="M512 960c282.768 0 512-229.232 512-512s-229.232-512-512-512c-282.768 0-512 229.232-512 512v0c0 282.768 229.232 512 512 512v0z" />
<glyph unicode="&#xe90a;" glyph-name="Icons_fornova-logo" d="M942.812 522.277l-304.021 305.749-89.478-90.17-292.621-294.003 106.753-107.098 292.621 294.003 25.566-25.912 138.882-139.228-292.966-294.003 106.753-107.444 292.275 294.003c69.095 68.751 43.185 129.555 16.237 164.102zM480.562 174.381l22.111 22.111 267.055 268.437-113.318 114.008-289.511-291.239-25.566 25.912-105.717 107.79-26.256 26.602 406.283 404.901-107.098 107.098-411.119-410.429s-100.879-101.571 0-205.214l409.393-408.357 106.407 106.407-106.753 107.444z" />
<glyph unicode="&#xe90b;" glyph-name="Icons_Info" d="M450.048 485.888h120.833v-306.177h-120.833v306.177zM563.201 695.296c-6.644 6.318-14.445 11.495-23.045 15.167l-0.508 0.194c-8.483 3.478-18.324 5.537-28.635 5.632h-0.037c-0.156 0.002-0.341 0.002-0.526 0.002-9.808 0-19.131-2.072-27.555-5.806l0.436 0.172c-8.969-3.736-16.623-8.928-23.038-15.358l-0.002-0.002c-6.554-6.169-11.768-13.682-15.209-22.108l-0.152-0.42c-3.56-7.99-5.634-17.314-5.634-27.122 0-0.185 0-0.37 0.002-0.554v0.029c0.042-9.64 2.11-18.786 5.801-27.049l-0.169 0.425c3.727-8.796 8.919-16.284 15.343-22.51l0.018-0.018c6.516-6.092 14.146-11.095 22.535-14.656l0.506-0.191c7.522-3.577 16.344-5.665 25.654-5.665 0.702 0 1.399 0.011 2.094 0.035l-0.101-0.002c0.361-0.007 0.788-0.011 1.214-0.011 9.924 0 19.362 2.077 27.907 5.817l-0.447-0.174c9.042 3.896 16.821 8.884 23.643 14.927l-0.092-0.079c6.431 6.351 11.755 13.805 15.671 22.055l0.202 0.473c3.522 7.836 5.59 16.984 5.632 26.609v0.015c0.002 0.156 0.002 0.341 0.002 0.526 0 9.808-2.072 19.131-5.806 27.555l0.172-0.436c-3.98 8.776-9.324 16.251-15.847 22.504l-0.026 0.024zM512 960c-282.771 0-512-229.231-512-512s229.231-512 512-512c282.771 0 512 229.231 512 512v0c0 282.771-229.231 512-512 512v0zM512-12.802c-254.494 0-460.802 206.307-460.802 460.802s206.307 460.802 460.802 460.802c254.494 0 460.802-206.307 460.802-460.802v0c0-254.494-206.307-460.802-460.802-460.802v0z" />
<glyph unicode="&#xe90c;" glyph-name="Icons_loading" d="M592.407 131.193l178.103 3.217c-71.787-67.7-168.825-109.307-275.578-109.307-197.158 0-361.17 141.917-395.452 329.171l-0.375 2.463c-3.94 20.773-6.195 44.67-6.195 69.094 0 84.811 27.184 163.271 73.316 227.144l-0.784-1.142-32.968 23.318c-49.923-69.389-79.841-156.083-79.841-249.762 0-26.678 2.427-52.791 7.071-78.129l-0.403 2.64c38.797-209.489 219.679-366.176 437.324-367.062h0.095c0.121 0 0.264 0 0.406 0 112.257 0 214.528 42.759 291.413 112.878l-0.34-0.306-8.442-158.404h40.204l12.865 241.223-241.223-4.422zM784.18 829.938c-70.942 52.007-159.964 83.22-256.277 83.22-112.912 0-215.806-42.901-293.268-113.29l0.358 0.321 8.442 160.816h-40.204l-12.865-241.223 241.223 4.422v40.204l-178.103-3.217c70.151 61.145 162.493 98.425 263.543 98.425 222.041 0 402.039-180 402.039-402.039 0-79.098-22.841-152.859-62.289-215.050l0.973 1.641 32.968-23.318c49.536 69.982 79.184 157.093 79.184 251.131 0 147.35-72.791 277.7-184.376 357.050l-1.347 0.91z" />
<glyph unicode="&#xe90d;" glyph-name="Icons_Market-visibility" d="M1012.592 486.806c-53.953 86.474-126.363 156.65-212.080 206.441l-2.903 1.556c-81.579 49.476-180.175 78.758-285.609 78.758s-204.030-29.282-288.098-80.155l2.488 1.397c-88.659-51.463-161.163-121.61-213.881-205.457l-1.491-2.541c-6.928-11.028-11.038-24.438-11.038-38.806s4.11-27.776 11.218-39.113l-0.18 0.308c54.206-86.388 126.711-156.535 212.454-206.431l2.916-1.567c81.611-49.359 180.199-78.567 285.609-78.567s204 29.207 288.115 79.97l-2.506-1.404c88.669 51.282 161.095 121.474 213.499 205.447l1.484 2.551c7.143 10.968 11.392 24.391 11.392 38.806s-4.249 27.838-11.562 39.083l0.17-0.278zM979.606 428.985c-50.605-80.703-118.432-146.172-198.667-192.569l-2.735-1.459c-76.043-46.094-167.938-73.372-266.206-73.372s-190.163 27.279-268.529 74.676l2.323-1.304c-82.644 48.137-150.282 113.542-199.618 191.661l-1.396 2.368c-3.545 5.384-5.806 11.899-6.204 18.912l-0.005 0.102c0.208 6.952 2.351 13.363 5.904 18.762l-0.083-0.137c50.72 80.612 118.517 146.052 198.666 192.563l2.736 1.466c76.043 46.094 167.938 73.372 266.206 73.372s190.163-27.279 268.529-74.676l-2.323 1.304c82.588-48.215 150.208-113.602 199.614-191.662l1.399-2.366c3.673-5.599 5.954-12.404 6.208-19.726l0.002-0.065c-0.43-6.545-2.543-12.521-5.904-17.596l0.083 0.133zM512 707.221c-1.039 0.015-2.264 0.023-3.493 0.023-143.164 0-259.221-116.058-259.221-259.221s116.058-259.221 259.221-259.221c143.155 0 259.208 116.045 259.221 259.196v0.002c0.005 0.579 0.007 1.261 0.007 1.944 0 141.55-114.31 256.4-255.653 257.276h-0.083zM512 227.585c-1.039-0.018-2.264-0.028-3.493-0.028-121.732 0-220.415 98.683-220.415 220.415s98.683 220.415 220.415 220.415c121.722 0 220.4-98.668 220.415-220.387v-0.002c0.003-0.464 0.005-1.012 0.005-1.561 0-120.195-96.889-217.759-216.825-218.855h-0.103zM507.731 628.057c-0.619 0.008-1.347 0.013-2.078 0.013-47.462 0-90.264-19.956-120.473-51.934l-0.075-0.080c-31.641-31.254-51.24-74.639-51.24-122.603 0-0.827 0.005-1.652 0.017-2.476l-0.002 0.125c-0.002-0.092-0.002-0.2-0.002-0.308 0-7.553 2.956-14.417 7.775-19.494l-0.012 0.013c4.977-4.939 11.834-7.99 19.402-7.99s14.425 3.051 19.404 7.992l-0.002-0.002c4.807 5.066 7.764 11.929 7.764 19.482 0 0.108 0 0.217-0.002 0.325v-0.017c-0.007 0.487-0.012 1.062-0.012 1.639 0 32.868 13.354 62.617 34.933 84.118l0.003 0.003c20.691 21.782 49.868 35.331 82.211 35.331 0.702 0 1.404-0.007 2.103-0.018l-0.105 0.002c0.050 0 0.108 0 0.167 0 7.545 0 14.362 3.121 19.229 8.142l0.007 0.007c4.599 5.126 7.412 11.935 7.412 19.402s-2.813 14.278-7.435 19.431l0.023-0.027c-4.717 5.266-11.445 8.646-18.967 8.924l-0.048 0.002z" />
<glyph unicode="&#xe90e;" glyph-name="Icons_Meta-Issues, MIB" d="M306.763 319.954h40.974v42.804h-267.065c-11.359 0.204-20.491 9.46-20.491 20.849 0 0.13 0.002 0.259 0.003 0.388v-0.019 512.179c-0.002 0.113-0.003 0.245-0.003 0.379 0 11.463 9.089 20.802 20.453 21.206l0.036 0.002h698.393c11.402-0.404 20.491-9.743 20.491-21.206 0-0.134-0.002-0.266-0.003-0.398v0.020-384.135h41.706v383.769c0.017 0.545 0.027 1.187 0.027 1.83 0 34.431-27.816 62.365-62.202 62.559h-698.412c-34.087-0.602-61.488-28.376-61.488-62.551 0-0.646 0.009-1.291 0.030-1.932l-0.002 0.094v-512.179c-0.006-0.332-0.009-0.723-0.009-1.115 0-34.241 27.349-62.095 61.395-62.908l0.075-0.002h182.921v-85.241h-39.146v-42.437h164.265v42.804h-81.949zM998.937 32.037l-129.143 133.898c-3.493 3.828-8.501 6.22-14.071 6.22-0.069 0-0.138 0-0.208-0.002h0.011c-5.741-0.020-10.922-2.397-14.629-6.214l-0.005-0.005-14.267-14.634-43.901 45.731c32.278 40.156 51.806 91.755 51.806 147.916 0 63.216-24.745 120.655-65.075 163.155l0.097-0.104c-39.782 41.676-95.658 67.696-157.613 68.046h-0.066c-124.075-5.084-222.733-106.901-222.733-231.761s98.661-226.678 222.274-231.746l0.459-0.016c54.699 0.215 104.641 20.403 142.952 53.644l-0.272-0.231 43.17-44.998-14.267-14.634c-3.592-3.947-5.793-9.217-5.793-15s2.199-11.053 5.808-15.017l-0.016 0.017 130.971-133.898c3.584-3.804 8.644-6.184 14.261-6.219h0.006c0.072-0.002 0.157-0.002 0.244-0.002 5.669 0 10.779 2.388 14.382 6.211l0.009 0.009 57.437 59.633c3.235 3.752 5.205 8.674 5.205 14.057 0 6.307-2.705 11.982-7.017 15.927l-0.016 0.014zM611.876 155.326c-100.819 4.574-180.824 87.423-180.824 188.958s80.006 184.382 180.414 188.942l0.41 0.014c0.083 0 0.181 0 0.28 0 50.555 0 96.161-21.187 128.425-55.166l0.072-0.077c32.847-34.612 53.048-81.503 53.048-133.112 0-0.277 0-0.552-0.002-0.828v0.042c0.024-1.097 0.036-2.391 0.036-3.686 0-101.093-81.034-183.258-181.689-185.084l-0.171-0.003zM926.866-12.23l-99.876 103.534 28.536 29.267 99.876-103.534zM614.801 490.804v-42.804c56.841-1.221 102.453-47.589 102.453-104.609 0-0.651-0.006-1.302-0.017-1.949l0.002 0.097h41.34c0.019 0.877 0.030 1.912 0.030 2.949 0 79.931-64.082 144.893-143.673 146.314l-0.134 0.002z" />
<glyph unicode="&#xe90f;" glyph-name="Icons_My-Performace-num" d="M512 960c-282.77 0-512-229.23-512-512s229.23-512 512-512c282.77 0 512 229.23 512 512v0c0 282.77-229.23 512-512 512v0zM512-37.334c-268.043 0-485.334 217.291-485.334 485.334s217.291 485.334 485.334 485.334c268.043 0 485.334-217.291 485.334-485.334v0c-0.152-267.982-217.353-485.182-485.319-485.334h-0.014z" />
<glyph unicode="&#xe910;" glyph-name="Icons_Qusetion-mark" d="M512 960c-282.771 0-512-229.231-512-512s229.231-512 512-512c282.771 0 512 229.231 512 512v0c0 282.771-229.231 512-512 512v0zM512-12.802c-254.494 0-460.802 206.307-460.802 460.802s206.307 460.802 460.802 460.802c254.494 0 460.802-206.307 460.802-460.802v0c0-254.494-206.307-460.802-460.802-460.802v0zM614.399 681.473c-13.123 11.242-28.635 20.145-45.619 25.83l-0.972 0.282c-16.634 5.702-35.803 9.062-55.735 9.216h-0.073c-0.394 0.002-0.858 0.004-1.324 0.004-15.31 0-30.23-1.681-44.581-4.866l1.362 0.253c-14.81-3.221-27.808-7.627-40.108-13.295l1.195 0.495c-12.549-5.524-23.313-11.686-33.341-18.819l0.572 0.387c-10.327-7.075-19.349-14.311-27.797-22.154l0.15 0.139 18.944-30.208c3.232-5.522 9.121-9.183 15.866-9.216h0.004c4.827 0.768 9.038 2.968 12.291 6.149l-0.004-0.004c5.696 4.611 12.052 9.011 18.731 12.918l0.726 0.392c7.436 4.866 16.014 9.491 24.981 13.387l1.131 0.438c11.297 3.617 24.292 5.7 37.776 5.7 1.481 0 2.955-0.024 4.422-0.075l-0.213 0.007c0.464 0.007 1.014 0.011 1.564 0.011 11.7 0 22.959-1.877 33.495-5.346l-0.757 0.216c10.435-3.408 19.463-8.47 27.269-14.956l-0.134 0.108c7.55-6.644 13.739-14.632 18.229-23.617l0.202-0.447c4.521-9.016 7.17-19.644 7.17-30.892 0-0.119 0-0.24 0-0.359v0.018c0.011-0.528 0.018-1.153 0.018-1.778 0-14.628-3.408-28.461-9.473-40.746l0.24 0.539c-6.34-11.994-14.016-22.284-23.032-31.225l-0.009-0.009c-8.888-9.145-18.601-17.393-29.049-24.662l-0.649-0.427c-10.241-7.68-20.48-15.36-29.696-23.041-8.681-7.042-16.128-15.138-22.279-24.187l-0.249-0.389c-5.766-8.171-9.218-18.337-9.218-29.306 0-0.136 0-0.273 0.002-0.409v0.022-4.609l4.609-66.561h51.201l7.168 61.439c1.349 9.442 5.59 17.714 11.785 24.072l-0.009-0.009c6.915 7.388 14.098 14.247 21.648 20.687l0.367 0.306 30.721 23.041c11.433 8.543 21.364 18.146 29.962 28.864l0.246 0.319c9.165 11.031 16.907 23.703 22.671 37.413l0.367 0.988c5.841 14.643 9.229 31.614 9.229 49.375 0 0.642-0.004 1.283-0.013 1.923v-0.097c0.002 0.295 0.004 0.645 0.004 0.997 0 19.285-4.149 37.602-11.603 54.105l0.334-0.829c-7.401 16.731-17.787 30.89-30.606 42.394l-0.114 0.101zM530.432 265.215c-4.448 4.435-9.711 8.056-15.543 10.624l-0.328 0.13c-5.889 2.576-12.751 4.081-19.963 4.096h-0.004c-7.047-0.088-13.721-1.586-19.787-4.224l0.33 0.128c-6.16-2.695-11.422-6.316-15.873-10.754l0.002 0.002c-4.33-4.418-7.799-9.698-10.129-15.554l-0.112-0.319c-2.576-5.889-4.081-12.751-4.096-19.963v-0.004c0.015-7.216 1.52-14.078 4.224-20.299l-0.128 0.33c2.825-6.802 6.809-12.595 11.763-17.395l0.013-0.013c4.418-4.33 9.698-7.799 15.554-10.129l0.319-0.112c5.733-2.51 12.408-4.008 19.424-4.096h0.033c7.216 0.015 14.078 1.52 20.299 4.224l-0.33-0.128c6.175 2.442 11.453 5.911 15.88 10.248l-0.009-0.009c4.376 4.484 7.988 9.735 10.613 15.53l0.139 0.341c2.275 5.584 3.597 12.063 3.597 18.85 0 0.394-0.004 0.785-0.013 1.177v-0.057c0.009 0.332 0.013 0.726 0.013 1.118 0 6.787-1.32 13.266-3.718 19.193l0.123-0.343c-2.972 6.827-7.126 12.621-12.256 17.378l-0.033 0.031z" />
<glyph unicode="&#xe911;" glyph-name="Icons_Unautorized-OTA" d="M1012.391 835.355v0c-1.744 18.646-17.315 33.124-36.27 33.124-0.386 0-0.768-0.006-1.15-0.018l0.057 0.002-50.607 2.837-128.645 7.568c-4.321 4.3-9.312 7.932-14.801 10.724l-0.333 0.154-72.362 31.215c-7.899 3.756-17.148 6.007-26.909 6.148h-500.44c-0.673 0.014-1.467 0.024-2.264 0.024-56.661 0-103.161-43.51-107.908-98.944l-0.028-0.402c0-0.136 0-0.297 0-0.459 0-19.404 4.359-37.788 12.153-54.229l-0.327 0.77c-23.438-18.455-38.749-46.323-40.194-77.809l-0.008-0.23c-0.002-0.205-0.002-0.447-0.002-0.689 0-17.989 4.737-34.871 13.031-49.467l-0.26 0.496c-19.172-17.666-31.484-42.527-32.628-70.269l-0.006-0.201c0.203-19.016 6.377-36.552 16.732-50.865l-0.179 0.258c-24.824-18.748-40.702-48.205-40.702-81.369 0-0.825 0.010-1.646 0.028-2.467l-0.002 0.122c-0.012-0.604-0.018-1.313-0.018-2.026 0-9.527 1.215-18.772 3.498-27.586l-0.167 0.762c11.078-42.754 49.148-73.882 94.55-74.254h263.481l-24.121-135.267c-2.177-9.31-3.422-19.999-3.422-30.98s1.248-21.67 3.607-31.933l-0.185 0.955c14.092-52.619 34.825-98.741 61.713-140.526l-1.175 1.949c5.873-8.633 13.683-15.535 22.83-20.178l0.345-0.159c17.971-10.61 39.598-16.878 62.689-16.878 29.311 0 56.261 10.098 77.565 27.007l-0.258-0.197c17.786 12.811 29.25 33.437 29.323 56.744v137.644c24.594 79.93 141.888 211.886 154.658 227.968l42.565 31.215c4.207 3.662 7.81 7.867 10.742 12.537l0.136 0.234h22.229l141.888 11.824c16.034 2.364 28.85 13.911 33.040 29.041l0.067 0.282 4.258 16.553c6.148 25.068 12.297 50.607 16.553 76.146 4.825 34.050 7.58 73.38 7.58 113.355 0 45.797-3.615 90.748-10.578 134.586l0.634-4.839zM760.304 491.986l-47.297-36.891c-3.565-2.522-6.666-5.324-9.407-8.452l-0.053-0.061c-22.229-25.539-136.685-157.495-164.116-245.465-1.447-4.949-2.307-10.639-2.366-16.52v-135.773c-0.154-6.479-3.465-12.155-8.446-15.565l-0.067-0.043c-12.157-9.432-27.628-15.12-44.429-15.12-14.787 0-28.545 4.406-40.031 11.978l0.274-0.169c-22.883 35.487-41.346 76.569-53.208 120.364l-0.709 3.077c-1.349 6.184-2.124 13.289-2.124 20.575s0.772 14.388 2.242 21.235l-0.12-0.66 26.958 158.914c0.26 1.522 0.408 3.278 0.408 5.066 0 7.826-2.837 14.99-7.54 20.52l0.037-0.045-12.297 10.879h-297.964c-0.561-0.024-1.219-0.037-1.882-0.037-21.416 0-39.507 14.234-45.329 33.756l-0.085 0.335c-0.258 2.693-0.404 5.822-0.404 8.987s0.146 6.294 0.435 9.383l-0.030-0.396c-0.022 0.563-0.035 1.223-0.035 1.888 0 19.973 11.681 37.219 28.584 45.279l0.303 0.13c10.297 5.066 17.646 14.76 19.367 26.293l0.024 0.191c0.313 1.736 0.494 3.733 0.494 5.774 0 9.854-4.186 18.731-10.877 24.95l-0.020 0.020c-8.779 7.647-14.378 18.75-14.661 31.167v0.049c2.201 17.764 12.126 32.837 26.257 41.956l0.23 0.138c6.95 5.432 11.677 13.429 12.754 22.544l0.014 0.159v16.081l-7.568 8.513c-7.052 7.771-11.368 18.136-11.368 29.51 0 0.433 0.006 0.866 0.018 1.297l-0.002-0.063c2.177 18.656 12.687 34.477 27.655 43.84l0.25 0.146c9.521 6.461 15.695 17.233 15.695 29.447 0 6.576-1.788 12.734-4.908 18.014l0.089-0.165c-6.274 10.283-9.986 22.725-9.986 36.032 0 0.967 0.020 1.931 0.059 2.888l-0.004-0.138c4.89 27.055 28.26 47.311 56.362 47.311 0.471 0 0.941-0.006 1.408-0.016l-0.069 0.002h503.703l69.999-33.581c2.681-1.101 4.566-3.621 4.729-6.603v-0.018zM965.568 601.711c-3.784-24.121-9.932-47.297-15.608-71.417l-2.366-8.513-127.227-10.405-7.568 314.991 108.309-6.621h40.675c6.176-36.778 9.704-79.152 9.704-122.35 0-33.727-2.152-66.952-6.324-99.546l0.404 3.861z" />
<glyph unicode="&#xe912;" glyph-name="Icons_Uncontracted-OTA-issues, UOIU" d="M686.705 772.4v85.269c-1.309 8.66-8.699 15.221-17.622 15.221s-16.313-6.561-17.609-15.121l-0.013-0.099v-85.269c0.848-47.277 39.371-85.276 86.771-85.276 0.404 0 0.808 0.003 1.212 0.008h156.832v-324.4c0.212-9.463 7.934-17.054 17.429-17.054 0.002 0 0.003 0 0.005 0v0c0.112-0.003 0.246-0.005 0.379-0.005 9.419 0 17.054 7.636 17.054 17.054 0 0.002 0 0.003 0 0.005v0 341.075c0 0.002 0 0.003 0 0.005 0 9.419-7.636 17.054-17.054 17.054-0.134 0-0.265-0.002-0.399-0.005h-174.308c-0.339-0.008-0.738-0.013-1.137-0.013-28.464 0-51.54 23.076-51.54 51.54 0 0.005 0 0.008 0 0.013v0zM564.297-29.883h-454.766c-0.226-0.003-0.492-0.005-0.759-0.005-28.334 0-51.327 22.863-51.539 51.146v853.463c0.202 28.311 23.2 51.184 51.539 51.184 0.534 0 1.065-0.008 1.594-0.024l-0.078 0.002h553.298l169.779-165.611c3.154-3.149 7.509-5.095 12.317-5.095s9.163 1.948 12.317 5.095v0c3.127 3.092 5.064 7.383 5.064 12.127s-1.936 9.034-5.063 12.125l-0.002 0.002-174.705 170.537c-3.022 3.052-7.214 4.939-11.847 4.939-0.231 0-0.462-0.005-0.692-0.015l0.033 0.002h-560.499c-0.228 0.002-0.497 0.003-0.765 0.003-47.323 0-85.759-38.041-86.398-85.212v-853.504c0.64-47.23 39.077-85.272 86.398-85.272 0.269 0 0.537 0.002 0.806 0.003h454.725c0.112-0.003 0.246-0.005 0.379-0.005 9.419 0 17.054 7.636 17.054 17.054 0 0.002 0 0.003 0 0.005v0c-0.204 9.471-7.929 17.070-17.429 17.070-0.269 0-0.534-0.007-0.8-0.018l0.037 0.002zM342.221 762.547c-0.414 11.816-10.090 21.236-21.967 21.236-0.27 0-0.541-0.005-0.809-0.015l0.039 0.002h-135.293c-0.117 0.002-0.254 0.003-0.392 0.003-11.874 0-21.549-9.415-21.967-21.187l-0.002-0.037v-125.061c0.619-11.641 10.21-20.847 21.951-20.847 0.143 0 0.287 0.002 0.43 0.005h135.272c0.234-0.010 0.51-0.015 0.787-0.015 11.744 0 21.337 9.21 21.949 20.803l0.002 0.054zM297.124 657.95h-88.3v83.753h90.195zM980.029 258.514l-34.866 34.107c-12.133 12.102-28.878 19.586-47.372 19.586s-35.238-7.484-47.373-19.588l0.002 0.002-227.382-223.593c-3.216-3.060-5.237-7.351-5.305-12.115v-102.335c0.212-9.463 7.934-17.054 17.429-17.054 0.002 0 0.003 0 0.005 0h104.217c0.179-0.007 0.391-0.011 0.603-0.011 4.53 0 8.619 1.894 11.518 4.932l0.007 0.007 227.382 223.593c13.128 11.391 21.382 28.101 21.382 46.738 0 18.103-7.787 34.388-20.195 45.686l-0.049 0.044zM828.441 220.618l27.665-26.908-151.589-148.557-27.665 27.285zM651.84-29.883v78.068l80.342-78.068zM756.436-6.766l-27.665 27.285 151.589 148.177 27.665-26.908zM955.397 188.026l-22.739-22.359-79.584 79.205 22.359 21.98c5.582 6.308 13.698 10.264 22.739 10.264s17.155-3.957 22.711-10.233l0.028-0.033 34.866-34.107c6.39-5.183 10.44-13.034 10.44-21.83 0-8.968-4.208-16.95-10.757-22.084l-0.062-0.046zM213.371 370.311c4.237-3.709 9.805-5.994 15.903-6.064h2.288c6.087 0.694 11.382 3.622 15.134 7.93l0.024 0.028 89.816 125.818c2.405 3.229 3.85 7.297 3.85 11.702 0 7.281-3.947 13.638-9.819 17.051l-0.094 0.050c-3.524 2.224-7.811 3.543-12.408 3.543-7.585 0-14.331-3.594-18.627-9.173l-0.041-0.055-75.794-104.597-25.769 23.875c-4.172 3.851-9.769 6.212-15.918 6.212s-11.746-2.361-15.932-6.227l0.016 0.015c-3.993-3.682-6.484-8.94-6.484-14.779s2.491-11.097 6.471-14.768l0.013-0.013zM184.19 112.61h135.293c0.234-0.010 0.51-0.015 0.787-0.015 11.744 0 21.337 9.21 21.949 20.803l0.002 0.054v125.061c-0.414 11.816-10.090 21.236-21.967 21.236-0.27 0-0.541-0.005-0.809-0.015l0.039 0.002h-135.293c-0.117 0.002-0.254 0.003-0.392 0.003-11.874 0-21.549-9.415-21.967-21.187l-0.002-0.037v-125.061c0.619-11.641 10.21-20.847 21.951-20.847 0.143 0 0.287 0.002 0.43 0.005h-0.021zM206.929 238.429h90.195v-83.753h-88.3z" />
<glyph unicode="&#xe913;" glyph-name="Icons_comment-01" d="M929.905 929.557h-841.342c-49.816 0-88.563-38.746-88.563-94.097v-869.018l298.897 193.73h642.076c44.281 0 83.027 44.281 83.027 94.097v581.189c-5.536 49.816-44.281 94.097-94.097 94.097zM963.117 254.27c0-22.14-16.606-38.746-27.676-38.746h-653.146l-226.94-149.449v769.385c0 22.14 16.606 38.746 33.211 38.746h841.342c16.606 0 33.211-22.14 33.211-38.746v-581.189zM254.619 691.546h503.698v-83.027h-503.698v83.027zM254.619 497.816h503.698v-83.027h-503.698v83.027z" />
<glyph unicode="&#xe914;" glyph-name="Icons_resolved-01" d="M509.326 959.782c-138.788 0-266.011-52.046-364.319-156.137-98.308-98.308-150.354-225.531-144.572-358.537 0-283.36 231.314-508.891 514.674-508.891s508.891 231.314 508.891 514.674c0 283.36-231.314 508.891-514.674 508.891zM515.109-5.955c-254.445 0-456.845 202.4-456.845 451.063 0 121.439 40.48 231.314 127.223 318.057 86.743 92.526 202.4 138.788 323.84 138.788 254.445 0 456.845-202.4 456.845-451.063 0-254.445-202.4-456.845-451.063-456.845zM399.452 323.669l-75.177 144.572-80.96-40.48 127.223-231.314 23.131 11.566 5.783-5.783 23.131 23.131 23.131 11.566v5.783l329.622 335.406-63.611 63.611z" />
<glyph unicode="&#xe915;" glyph-name="Icons_mail-01" d="M1002.213 121.915h-980.426c-10.894 0-21.787 10.894-21.787 21.787v615.49c5.447 10.894 10.894 16.341 21.787 16.341h980.426c10.894 0 21.787-10.894 21.787-16.341v-620.936c0-10.894-10.894-21.787-21.787-16.341zM964.085 160.043l-294.127 364.937-157.958-98.043-157.958 98.043-294.127-364.937h904.171zM43.574 198.171l277.788 343.149-277.788 179.745v-522.893zM87.148 737.405l424.852-266.894 424.852 266.894h-849.703zM702.638 546.767l283.234-348.596v522.893l-283.234-174.297z" />
<glyph unicode="&#xe916;" glyph-name="Icons_bookmark-01" d="M854 844.007v-786.002l-306.005 269.998c-11.999 11.998-24 11.998-41.998 11.998-11.999 0-30.007-6.005-41.998-11.998l-311.993-269.998v786.002h701.997zM913.993 904h-815.996v-912h78.004l335.996 293.999 335.996-293.999h78.005v912h-11.998z" />
<glyph unicode="&#xe917;" glyph-name="Icons_cug" d="M441.991 231.722l347.273 353.362-67.015 67.015-329.005-335.094-79.21 152.316-85.3-42.642 134.031-243.705 24.374 12.179 6.090-6.090 24.374 24.374 24.374 12.179z" />
<glyph unicode="&#xe918;" glyph-name="Icons_Test-Reservation" d="M1023.893 448c0 283.422-231.365 514.786-514.786 509.001-283.422 5.785-514.786-225.58-509.001-509.001 0-283.422 231.365-514.786 514.786-509.001 283.422-5.785 514.786 225.58 509.001 509.001 0 0 0 0 0 0zM966.053 448c0-254.501-208.228-456.944-456.944-451.161-254.501 0-456.944 208.228-451.161 456.944 0 254.501 208.228 456.944 456.944 451.161 248.716 0 456.944-208.228 451.161-456.944 0 0 0 0 0 0zM711.552 511.625l-248.716 150.387c-23.136 11.568-52.057 11.568-75.193 0-23.136-17.353-34.704-40.489-34.704-69.41v-294.99c0-28.921 17.353-52.057 40.489-63.625 11.568-5.785 23.136-11.568 40.489-11.568 11.568 0 28.921 5.785 40.489 11.568l248.716 150.387c11.568 5.785 17.353 17.353 23.136 23.136 11.568 40.489 0 80.978-34.704 104.114zM682.631 436.432l-248.716-144.603c-5.785-5.785-11.568-5.785-17.353 0-5.785 0-11.568 5.785-5.785 11.568v289.205c0 5.785 5.785 11.568 5.785 11.568s5.785 5.785 11.568 5.785v0c5.785 0 5.785 0 11.568-5.785l248.716-144.603c0 0 5.785-5.785 5.785-5.785 0-5.785-5.785-17.353-11.568-17.353z" />
<glyph unicode="&#xe919;" glyph-name="flag-01" d="M183.241 960h-53.894v-1024h53.894v431.158c64.674-16.169 129.347-26.948 194.021-26.948h102.4l21.558 5.39h5.39l16.169 5.39 21.558 5.39h5.39c5.39 0 10.779 5.39 16.169 5.39v0c16.169 10.779 37.727 21.558 53.894 32.337v0c32.337 10.779 64.674 10.779 97.011 10.779 59.284 0 118.568-10.779 177.853-32.337v517.389c-53.894 21.558-118.568 32.337-177.853 32.337-48.505 0-102.4-10.779-145.516-32.337v0l-26.948-10.779h-5.39l-21.558-5.39-16.169-5.39h-5.39l-21.558-5.39h-97.011c-64.674 0-129.347 10.779-194.021 21.558v75.453zM398.82 803.705h86.232c5.39 0 16.169 5.39 21.558 5.39h5.39l21.558 5.39 26.948 16.169h5.39l21.558 10.779c37.727 16.169 80.842 26.948 118.568 26.948 43.115 0 80.842-5.39 123.958-16.169v-404.21c-43.115 10.779-80.842 16.169-123.958 16.169-37.727 0-70.063-5.39-107.79-16.169-21.558-5.39-43.115-16.169-59.284-21.558v0 0l-10.779-5.39h-5.39l-16.169-10.779-16.169-5.39h-5.39l-21.558-5.39-16.169-5.39h-70.063c-64.674 5.39-123.958 10.779-188.631 32.337v404.21c59.284-16.169 123.958-21.558 183.243-26.948h26.948z" />
<glyph unicode="&#xe91a;" glyph-name="Icons_bookmark-full-01" d="M913.996 904h-815.998v-912h78.003l335.999 294 335.999-294h78.003v912h-11.998z" />
<glyph unicode="&#xe91b;" glyph-name="Icons_Test-Reservation-full-01" d="M439.699 604.171c-5.785 5.785-5.785 5.785-11.568 5.785s-11.568-5.785-11.568-5.785-5.785-5.785-5.785-11.568v-289.205c-5.785-5.785 0-11.568 5.785-11.568 5.785-5.785 11.568-5.785 17.353 0l260.285 161.955-5.785 5.785-248.716 144.603zM509.108 957.001c-283.422 5.785-514.786-225.58-509.001-509.001 0-283.422 231.365-514.786 514.786-509.001 283.422-5.785 514.786 225.58 509.001 509.001 0 283.422-231.365 514.786-514.786 509.001zM746.257 407.511c-5.785-5.785-11.568-17.353-23.136-23.136l-248.716-150.387c-11.568-5.785-28.921-11.568-40.489-11.568-17.353 0-28.921 5.785-40.489 11.568-23.136 11.568-40.489 34.704-40.489 63.625v294.99c0 28.921 11.568 52.057 34.704 69.41 23.136 11.568 52.057 11.568 75.193 0l248.716-150.387c34.704-23.136 46.272-63.625 34.704-104.114z" />
<glyph unicode="&#xe91c;" glyph-name="X-01" horiz-adv-x="966" d="M565.506 447.141l385.029 385.029c20.627 20.627 20.627 61.88 0 82.506s-61.88 20.627-82.506 0l-385.029-385.029-385.029 385.029c-20.627 20.627-61.88 20.627-82.506 0s-20.627-61.88 0-82.506l385.029-385.029-385.029-385.029c-20.627-20.627-20.627-61.88 0-82.506 13.751-13.751 27.502-13.751 41.253-13.751s27.502 6.876 41.253 13.751l385.029 385.029 385.029-385.029c13.751-13.751 27.502-13.751 41.253-13.751s27.502 6.876 41.253 13.751c20.627 20.627 20.627 61.88 0 82.506l-385.029 385.029z" />
<glyph unicode="&#xe91d;" glyph-name="Icons_comment-full-01-01" d="M929.905 929.557h-841.342c-49.816 0-88.563-38.746-88.563-94.097v-869.018l298.897 193.73h642.076c44.281 0 83.027 44.281 83.027 94.097v581.189c-5.536 49.816-44.281 94.097-94.097 94.097zM758.317 414.789h-503.698v83.027h503.698v-83.027zM758.317 608.519h-503.698v83.027h503.698v-83.027z" />
<glyph unicode="&#xe91e;" glyph-name="fornova" horiz-adv-x="4242" d="M306.914 704.94h-282.805c-15.52 0-24.142-8.622-24.142-24.142v-463.869c0-15.52 8.622-24.142 24.142-22.417 15.52 0 24.142 8.622 24.142 24.142v210.379h170.718c15.52 0 24.142 8.622 24.142 24.142s-8.622 24.142-24.142 24.142h-170.718v179.339h258.663c15.52 0 24.142 8.622 24.142 24.142s-8.622 24.142-24.142 24.142zM801.821 706.663h-93.118c-56.905 0-98.292-13.796-125.883-39.662-25.866-27.591-39.662-68.976-39.662-127.606v-179.339c0-56.905 12.071-98.292 39.662-125.883s68.976-41.387 125.883-39.662h93.118c56.905 0 98.292 12.071 125.883 39.662 25.866 25.866 39.662 68.976 39.662 125.883v179.339c0 58.63-12.071 101.741-39.662 127.606-25.866 25.866-68.976 39.662-125.883 39.662zM922.531 360.056c0-31.039-5.174-53.457-12.071-70.701s-18.968-29.316-36.213-36.213c-17.245-8.622-41.387-12.071-70.701-12.071h-93.118c-31.039 0-53.457 5.174-70.701 12.071s-29.316 18.968-36.213 36.213c-8.622 17.245-12.071 41.387-12.071 70.701v179.339c0 31.039 3.449 53.457 10.346 70.701 6.897 15.52 18.968 29.316 36.213 36.213s41.387 10.346 70.701 10.346h94.843c31.039 0 53.457-5.174 70.701-12.071s29.316-18.968 36.213-36.213c8.622-17.245 12.071-41.387 12.071-70.701v-177.615zM1501.935 406.615c36.213 3.449 62.079 18.968 81.047 41.387s27.591 55.181 27.591 94.843v24.142c0 44.835-12.071 79.323-36.213 103.465-24.142 22.417-58.63 34.488-103.465 34.488h-182.788c-15.52 0-24.142-8.622-24.142-24.142v-462.144c0-15.52 8.622-24.142 24.142-24.142s24.142 8.622 24.142 24.142v186.238h134.505l125.883-203.481c5.174-8.622 12.071-12.071 18.968-12.071 5.174 0 10.346 0 13.796 3.449 8.622 5.174 12.071 12.071 12.071 18.968 0 5.174-1.725 10.346-5.174 15.52l-110.363 179.339zM1312.249 451.45v203.481h158.647c31.039 0 55.181-6.897 68.976-20.693s20.693-37.937 20.693-68.976v-24.142c0-31.039-6.897-55.181-20.693-68.976s-37.937-20.693-68.976-20.693h-158.647zM2279.648 704.94c-15.52 0-24.142-8.622-24.142-24.142v-394.891l-315.569 405.238c-6.897 8.622-15.52 13.796-24.142 13.796-15.52 0-24.142-8.622-24.142-24.142v-463.869c0-15.52 8.622-24.142 24.142-24.142s24.142 8.622 24.142 24.142v394.891l313.844-405.238c8.622-8.622 17.245-13.796 25.866-13.796 15.52 0 24.142 8.622 24.142 24.142v463.869c0 15.52-6.897 24.142-24.142 24.142zM2859.052 706.663h-93.118c-56.905 0-98.292-13.796-125.883-39.662-25.866-27.591-39.662-68.976-39.662-127.606v-179.339c0-56.905 12.071-98.292 39.662-125.883 25.866-27.591 68.976-41.387 125.883-39.662h93.118c56.905 0 98.292 12.071 125.883 39.662 25.866 25.866 39.662 68.976 39.662 125.883v179.339c0 58.63-12.071 101.741-39.662 127.606-25.866 25.866-68.976 39.662-125.883 39.662zM2978.037 360.056c0-31.039-5.174-53.457-12.071-70.701s-18.968-29.316-36.213-36.213c-17.245-8.622-41.387-12.071-70.701-12.071h-93.118c-31.039 0-53.457 5.174-70.701 12.071s-29.316 18.968-36.213 36.213c-8.622 17.245-12.071 41.387-12.071 70.701v179.339c0 31.039 3.449 53.457 10.346 70.701 6.897 15.52 18.968 29.316 36.213 36.213s41.387 10.346 70.701 10.346h94.843c31.039 0 53.457-5.174 70.701-12.071s29.316-18.968 36.213-36.213c8.622-17.245 12.071-41.387 12.071-70.701v-177.615zM3683.323 703.215c-3.449 1.725-6.897 1.725-10.346 1.725-8.622 0-15.52-5.174-18.968-15.52l-181.064-420.758-182.788 420.758c-3.449 10.346-10.346 15.52-20.693 15.52-6.897 0-13.796-1.725-18.968-6.897-5.174-3.449-8.622-8.622-8.622-15.52 0-3.449 1.725-6.897 3.449-12.071l200.032-460.42c5.174-10.346 12.071-17.245 22.417-17.245h3.449c12.071 0 20.693 5.174 25.866 17.245l201.757 460.42c1.725 5.174 1.725 8.622 1.725 12.071 0 10.346-5.174 17.245-17.245 20.693zM4238.585 227.275l-200.032 460.42c-5.174 12.071-12.071 17.245-22.417 17.245h-3.449c-12.071 0-20.693-5.174-25.866-17.245l-201.757-460.42c-1.725-5.174-1.725-8.622-1.725-12.071 0-10.346 5.174-17.245 17.245-20.693 3.449-1.725 6.897-1.725 10.346-1.725 8.622 0 15.52 5.174 18.968 15.52l181.064 420.758 182.788-420.758c3.449-10.346 10.346-15.52 20.693-15.52 6.897 0 13.796 1.725 18.968 6.897 5.174 3.449 8.622 8.622 8.622 15.52 0 3.449-1.725 6.897-3.449 12.071z" />
<glyph unicode="&#xe91f;" glyph-name="alarm-01" d="M512-64c73.956 0 136.533 56.889 136.533 125.156h-273.067c0-68.267 62.578-125.156 136.533-125.156zM978.489 237.511c-39.822 39.822-119.467 102.4-119.467 307.2 0 153.6-119.467 278.756-278.756 312.889v39.822c0 34.133-28.444 62.578-68.267 62.578s-68.267-28.444-68.267-62.578v-39.822c-159.289-34.133-278.756-159.289-278.756-312.889 0-204.8-79.644-267.378-119.467-307.2-11.378-11.378-17.067-28.444-17.067-45.511 0-34.133 28.444-62.578 68.267-62.578h830.578c39.822 0 68.267 28.444 68.267 62.578 0 17.067-5.689 28.444-17.067 45.511z" />
<glyph unicode="&#xe920;" glyph-name="Circle" horiz-adv-x="979" d="M938.401 561.841l-64.246 140.569v53.69h-27.098c-37.553 66.681-83.225 110.222-135.697 129.709-63.332 23.343-142.091 13.905-235.16-28.216l-287.531-130.622c-93.475-42.526-152.849-95.607-176.192-158.634s-13.905-141.279 28.113-233.435l68.508-150.109c41.207-92.258 93.983-151.123 156.909-174.67 20.997-7.857 45.261-12.404 70.587-12.404 1.053 0 2.105 0.008 3.155 0.024l-0.159-0.002c47.803 0 102.102 13.702 162.389 40.598l181.47 82.514h190.706v96.52c45.469 32.58 76.424 69.726 91.953 110.933 23.851 63.027 14.615 141.584-27.708 233.536zM226.931 298.973l-38.872 91.344c-23.547 55.923-28.012 103.016-13.092 139.96 11.501 25.908 29.705 47.080 52.434 61.883l0.545 0.333c-0.582-5.16-0.914-11.141-0.914-17.199 0-0.019 0-0.038 0-0.057v0.003-273.119c-0.305-1.116-0.101-2.131-0.101-3.146zM499.542 43.512c-92.258-41.917-170.103-51.559-231.71-28.317s-113.267 81.194-153.864 172.031l-68.711 149.804c-41.308 90.836-50.747 167.972-27.911 229.476s81.194 113.774 173.553 155.691l287.531 130.622c58.968 26.794 112.252 40.598 159.244 40.598 0.596 0.006 1.301 0.010 2.007 0.010 25.054 0 49.065-4.468 71.28-12.65l-1.43 0.461c50.747-18.675 94.897-60.896 131.942-124.735h-433.886c-91.485-0.004-167.077-68.046-178.932-156.286l-0.102-0.927c-25.656-15.918-45.758-38.632-58.077-65.642l-0.383-0.937c-15.427-38.263-10.961-86.675 13.195-143.918l39.278-92.968c1.624-3.958 3.349-7.612 5.074-11.367 9.143-91.969 86.114-163.202 179.721-163.202 0.079 0 0.16 0 0.239 0h262.958zM961.238 330.233c-14.92-39.481-44.149-75.004-87.081-106.365v466.872l59.779-130.723c41.409-91.040 50.645-168.174 27.302-229.781z" />
<glyph unicode="&#xe921;" glyph-name="chat" horiz-adv-x="977" d="M908.913 717.34c-44.34 70.648-104.199 127.716-175.057 167.519l-2.442 1.26c-69.29 39.642-152.296 63.017-240.761 63.017-0.901 0-1.801-0.002-2.701-0.007l0.139 0.001c-0.933 0.006-2.037 0.010-3.141 0.010-175.688 0-329.965-91.668-417.612-229.785l-1.195-2.015c-41.531-67.125-66.143-148.519-66.143-235.661 0-55.014 9.809-107.737 27.773-156.515l-1.012 3.14c16.516-44.028 37.189-82.103 62.302-116.752l-0.979 1.418c-14.585-52.408-33.778-98.088-57.863-140.634l1.603 3.078-10.127-14.346-1.687-2.25c-11.362-13.161-18.282-30.433-18.282-49.321 0-3.239 0.203-6.43 0.598-9.562l-0.038 0.373c2.789-16.499 11.596-30.557 24.041-40.114l0.151-0.111c10.517-8.244 23.938-13.222 38.522-13.222 0.006 0 0.011 0 0.017 0h5.907c86.539 11.578 162.666 49.303 221.88 104.844l-0.217-0.201c58.075-25.263 125.727-39.959 196.811-39.959 89.423 0 173.414 23.258 246.252 64.056l-2.548-1.311c73.715 40.722 133.832 97.867 176.891 166.768l1.172 2.011c41.333 66.511 65.833 147.219 65.833 233.651 0 1.027-0.003 2.054-0.010 3.079l0.001-0.158c0.003 0.581 0.004 1.268 0.004 1.956 0 87.419-25.367 168.915-69.143 237.525l1.064-1.784zM832.963 291.173c-35.968-57.781-84.881-104.352-142.878-136.541l-1.991-1.014c-56.769-32.218-124.699-51.207-197.064-51.207-1.034 0-2.067 0.004-3.099 0.011l0.159-0.001c-67.586 0.253-131.258 16.758-187.389 45.806l2.295-1.080c-5.928 3.074-12.942 4.877-20.377 4.877-12.771 0-24.3-5.32-32.491-13.863l-0.015-0.016c-33.827-36.643-75.615-65.414-122.661-83.628l-2.235-0.761c24.315 47.463 43.77 102.525 55.548 160.376l0.712 4.184c0.201 1.624 0.316 3.503 0.316 5.409 0 10.847-3.72 20.824-9.955 28.727l0.075-0.098c-24.397 30.893-44.726 66.525-59.285 104.99l-0.913 2.747c-13.187 35.481-20.818 76.469-20.818 119.242 0 0.406 0.001 0.812 0.002 1.217v-0.063c-0.017 1.279-0.026 2.789-0.026 4.301 0 68.166 19.712 131.726 53.747 185.295l-0.835-1.407c36.168 57.791 85.143 104.424 143.153 136.812l1.997 1.023c56.435 32.215 124.019 51.209 196.040 51.209 1.097 0 2.193-0.004 3.287-0.013l-0.168 0.001c0.723 0.005 1.576 0.007 2.431 0.007 143.375 0 269.291-74.748 340.904-187.4l0.974-1.64c33.198-52.373 52.903-116.146 52.903-184.521 0-1.29-0.007-2.577-0.021-3.864l0.002 0.196c0.019-1.379 0.030-3.008 0.030-4.638 0-68.356-19.49-132.16-53.215-186.157l0.862 1.482zM497.092 516.212c-22.25-0.16-40.224-18.233-40.224-40.506 0-22.372 18.135-40.507 40.507-40.507s40.507 18.135 40.507 40.507c0 0.098 0 0.197-0.001 0.296v-0.015c-0.159 22.25-18.233 40.226-40.506 40.226-0.099 0-0.198 0-0.298-0.001h0.015zM674.029 516.212c-22.371-0.001-40.506-18.136-40.506-40.507s18.135-40.507 40.507-40.507c22.372 0 40.507 18.135 40.507 40.507 0 0.099 0 0.197-0.001 0.297v-0.015c0 0 0 0.001 0 0.001 0 22.216-18.010 40.225-40.225 40.225-0.099 0-0.197 0-0.297-0.001h0.015zM320.436 516.212c-22.371-0.001-40.506-18.136-40.506-40.507s18.135-40.507 40.507-40.507c22.372 0 40.507 18.135 40.507 40.507 0 0.099 0 0.197-0.001 0.297v-0.015c0 0 0 0.001 0 0.001 0 22.216-18.010 40.225-40.225 40.225-0.099 0-0.197 0-0.297-0.001h0.015z" />
<glyph unicode="&#xe922;" glyph-name="authorize-01" horiz-adv-x="1428" d="M1428.005 419.427l-191.496 399.405c0 5.471-5.471 5.471-10.943 10.943-5.471 0-10.943 0-16.414 0l-131.311-82.070c-16.414-10.943-32.828-21.885-49.242-32.828s-21.885-21.885-16.414-38.299c0 0 0-5.471 5.471-5.471-5.471 0-10.943 0-10.943 0-27.357-5.471-54.713 0-93.012 21.885-16.414 10.943-38.299 21.885-54.713 38.299-21.885 10.943-38.299 27.357-60.184 38.299-16.414 10.943-38.299 16.414-60.184 16.414-27.357 0-54.713 0-76.598 0-10.943 0-27.357 0-38.299 0-38.299 0-60.184-16.414-71.127-43.77s-27.357-54.713-43.77-82.070c0 5.471-5.471 5.471-5.471 5.471-32.828 0-60.184 5.471-103.955 27.357h-5.471c0 5.471 0 5.471 5.471 5.471 5.471 5.471 0 16.414-5.471 21.885l-180.553 120.369c-5.471 0-10.943 5.471-16.414 0-5.471 0-10.943-5.471-10.943-10.943l-186.024-382.991c0-5.471 0-10.943 0-16.414s5.471-5.471 10.943-10.943l164.139-65.656h5.471c5.471 0 10.943 0 10.943 5.471 5.471 5.471 10.943 16.414 16.414 21.885 0-5.471 0-5.471 5.471-10.943l43.77-32.828h5.471c-16.414-27.357-5.471-60.184 21.885-82.070 10.943-10.943 21.885-10.943 38.299-10.943 5.471 0 10.943 0 16.414 5.471 0 0 0 0 0-5.471v-5.471c0-5.471 0-5.471 0-10.943 5.471-27.357 21.885-54.713 43.77-65.656 5.471 0 10.943-5.471 21.885-5.471s21.885 5.471 27.357 10.943c0-10.943 0-21.885 5.471-32.828 10.943-27.357 32.828-38.299 60.184-43.77v0c5.471 0 5.471 0 10.943 5.471l5.471 5.471c5.471 5.471 16.414 10.943 21.885 16.414 0 0 0 0 5.471 5.471 0-10.943 0-21.885 5.471-27.357 5.471-16.414 21.885-38.299 60.184-38.299 0 0 0 0 5.471 0s5.471 0 5.471 0c5.471 0 10.943 5.471 21.885 16.414l5.471 5.471c16.414-16.414 38.299-27.357 54.713-27.357 5.471 0 16.414 0 21.885 5.471 27.357 10.943 43.77 38.299 38.299 65.656v0c5.471-5.471 5.471-10.943 10.943-10.943 21.885-27.357 43.77-27.357 71.127-16.414s49.242 43.77 43.77 71.127c16.414-16.414 43.77-10.943 65.656 0 21.885 16.414 32.828 32.828 32.828 54.713 0 5.471 0 10.943 0 16.414 10.943-10.943 27.357-16.414 38.299-16.414 16.414 0 38.299 10.943 49.242 27.357 16.414 21.885 16.414 38.299 10.943 60.184h5.471l87.541 49.242c5.471 0 5.471 5.471 5.471 5.471 5.471-5.471 10.943-16.414 16.414-21.885l10.943-16.414c5.471-5.471 16.414-10.943 27.357-10.943 5.471 0 5.471 0 10.943 0 43.77 16.414 93.012 38.299 136.783 60.184l32.828 16.414c5.471 0 5.471 5.471 10.943 10.943 0 5.471 0 10.943 0 16.414zM175.077 392.071l-136.783 54.713 169.61 355.635 153.196-98.483c-49.242-120.369-109.426-224.323-186.024-311.864zM393.929 299.059v0 0 0zM306.388 282.645c-16.414 10.943-21.885 27.357-16.414 38.299 5.471 16.414 21.885 27.357 43.77 32.828 16.414 0 21.885-5.471 21.885-16.414 5.471-10.943 5.471-16.414 0-27.357v0c-5.471-5.471-10.943-16.414-16.414-21.885-10.943-16.414-21.885-16.414-32.828-5.471zM393.929 189.633c-10.943 5.471-21.885 16.414-21.885 32.828v5.471c0 5.471 5.471 10.943 5.471 10.943 16.414 16.414 32.828 27.357 49.242 38.299 5.471 5.471 21.885 0 27.357-5.471s10.943-16.414 0-27.357c-5.471-10.943-16.414-16.414-21.885-27.357-5.471-5.471-10.943-10.943-10.943-16.414-10.943-10.943-21.885-10.943-27.357-10.943zM514.297 134.92c-5.471-5.471-10.943-5.471-16.414-10.943 0 0 0 0-5.471 0-16.414 5.471-21.885 10.943-32.828 27.357-5.471 10.943-5.471 16.414 5.471 27.357s16.414 21.885 27.357 27.357c5.471 10.943 16.414 16.414 21.885 27.357 5.471 5.471 10.943 5.471 16.414 5.471s10.943 0 16.414-5.471c16.414-16.414 16.414-21.885 5.471-32.828 0-21.885-16.414-43.77-38.299-65.656zM618.252 102.092c-5.471-5.471-5.471-10.943-10.943-10.943h-5.471c-16.414 0-21.885 5.471-27.357 16.414 0 5.471 0 16.414 0 21.885 5.471 10.943 16.414 21.885 32.828 38.299 5.471 5.471 5.471 5.471 10.943 5.471h5.471c10.943-5.471 10.943-10.943 10.943-16.414 5.471-27.357-5.471-38.299-16.414-54.713zM705.793 85.678c-10.943-5.471-21.885 0-27.357 5.471 10.943 21.885 21.885 43.77 21.885 65.656 5.471-5.471 5.471-5.471 10.943-10.943 5.471-10.943 16.414-21.885 16.414-32.828s-10.943-21.885-21.885-27.357zM1045.014 266.231c-5.471-10.943-16.414-16.414-21.885-16.414-10.943 0-16.414 5.471-21.885 10.943-10.943 16.414-27.357 32.828-38.299 43.77l-32.828 38.299c-21.885 27.357-43.77 49.242-65.656 76.598-5.471 5.471-16.414 10.943-27.357 10.943-5.471 0-10.943 0-16.414-5.471s-5.471-10.943-5.471-10.943v-5.471c0-5.471 0-16.414 5.471-27.357l10.943-16.414c32.828-38.299 65.656-82.070 103.955-120.369 10.943-10.943 10.943-16.414 10.943-27.357s-10.943-21.885-21.885-27.357c-10.943-5.471-21.885-5.471-27.357 0s-16.414 16.414-21.885 21.885l-27.357 32.828c-16.414 21.885-32.828 43.77-54.713 60.184-5.471 10.943-16.414 5.471-27.357 5.471-5.471 0-10.943-5.471-10.943-5.471-5.471-5.471-5.471-10.943-5.471-16.414s0-16.414 5.471-27.357c10.943-16.414 21.885-27.357 38.299-43.77 10.943-10.943 21.885-21.885 27.357-32.828l5.471-5.471c5.471-10.943 16.414-16.414 21.885-27.357 5.471-5.471-5.471-21.885-21.885-32.828-16.414-5.471-21.885-5.471-32.828 5.471-21.885 27.357-43.77 49.242-65.656 76.598l-10.943 21.885c-5.471 10.943-16.414 16.414-27.357 16.414v0c-5.471 0-16.414-5.471-21.885-10.943s-5.471-10.943-5.471-21.885c-5.471 5.471-10.943 5.471-16.414 5.471-5.471 5.471-16.414 5.471-21.885 5.471v0c-5.471 27.357-21.885 54.713-43.77 65.656s-49.242 10.943-71.127 0c-27.357 43.77-49.242 54.713-87.541 43.77-5.471 38.299-27.357 54.713-49.242 65.656-43.77 16.414-76.598-5.471-103.955-27.357l-16.414 16.414c71.127 98.483 114.897 186.024 153.196 268.094 21.885-10.943 43.77-21.885 71.127-21.885-5.471 0-10.943-10.943-10.943-16.414-5.471-10.943-10.943-27.357-5.471-43.77 10.943-38.299 38.299-49.242 65.656-54.713 43.77-10.943 93.012 5.471 114.897 54.713 5.471 16.414 16.414 27.357 21.885 43.77 0 5.471 5.471 5.471 5.471 10.943h5.471c5.471 0 10.943 0 21.885 0s21.885 0 27.357 0c10.943-5.471 21.885-10.943 38.299-21.885 38.299-16.414 71.127-38.299 98.483-71.127 16.414-21.885 38.299-43.77 54.713-65.656 10.943-10.943 16.414-21.885 27.357-32.828v0l38.299-43.77c21.885-27.357 43.77-54.713 65.656-76.598 10.943-16.414 10.943-27.357 0-43.77zM1083.313 348.3l-16.414 21.885c-21.885 21.885-38.299 43.77-60.184 71.127-10.943 10.943-21.885 21.885-32.828 38.299-16.414 16.414-32.828 38.299-49.242 54.713l-10.943 16.414c-16.414 21.885-32.828 43.77-54.713 60.184s-49.242 32.828-71.127 43.77l-21.885 10.943c-10.943 5.471-21.885 10.943-38.299 10.943-10.943 0-21.885 0-32.828 0s-21.885 0-38.299 0c-10.943 0-21.885-10.943-32.828-16.414-10.943-16.414-21.885-38.299-27.357-60.184-21.885-43.77-60.184-32.828-76.598-27.357-5.471 0-10.943 5.471-10.943 10.943s0 10.943 0 16.414c5.471 16.414 16.414 27.357 21.885 43.77 16.414 27.357 32.828 60.184 43.77 87.541 10.943 16.414 21.885 21.885 43.77 21.885 10.943 0 27.357 0 38.299 0 27.357 0 49.242 0 76.598 0 16.414 0 32.828-5.471 43.77-10.943 21.885-10.943 38.299-27.357 60.184-38.299 16.414-10.943 38.299-27.357 54.713-38.299 27.357-16.414 65.656-38.299 109.426-27.357 5.471-10.943 10.943-21.885 10.943-32.828 5.471-10.943 5.471-21.885 10.943-32.828 27.357-65.656 60.184-131.311 103.955-191.496l-43.77-32.828zM1373.292 413.956c-43.77-21.885-93.012-38.299-136.783-54.713l-10.943 16.414c-16.414 21.885-38.299 43.77-54.713 71.127-49.242 71.127-82.070 153.196-120.369 246.209 16.414 10.943 32.828 21.885 49.242 27.357l114.897 71.127 175.082-366.577-16.414-10.943z" />
<glyph unicode="&#xe923;" glyph-name="dashboard-01" horiz-adv-x="1193" d="M1121.067 88.297h-1055.128l-65.945-59.95h1181.024l-59.95 59.95zM5.989 10.362c0-11.99 17.985-23.98 47.96-23.98h1091.098c23.98 0 47.96 11.99 47.96 23.98v5.995l-1187.019-5.995zM1121.067 909.618h-1055.128v-797.341h1055.128v797.341zM1061.117 172.228h-929.232v677.44h929.232v-677.44zM497.583 292.129c29.975-11.99 65.945-23.98 101.916-23.98 89.926 0 179.851 53.955 215.822 137.886 53.955 119.901 0 263.782-119.901 317.737-59.95 23.98-125.896 29.975-185.846 5.995-53.955-17.985-101.916-65.945-131.891-119.901-23.98-59.95-29.975-125.896-5.995-185.846s65.945-107.911 125.896-131.891zM599.499 717.777c29.975 0 59.95-5.995 83.931-17.985 101.916-47.96 143.881-161.866 107.911-263.782l-191.841 65.945-65.945 203.831c23.98 5.995 41.965 11.99 65.945 11.99zM407.657 591.881c17.985 41.965 53.955 77.936 95.921 101.916l65.945-215.822 203.831-71.941c-53.955-95.921-167.861-131.891-269.777-89.926-47.96 23.98-89.926 65.945-107.911 113.906-11.99 59.95-11.99 113.906 11.99 161.866z" />
<glyph unicode="&#xe924;" glyph-name="focus-01" horiz-adv-x="1193" d="M596.501 960c-279.273 0-512-232.727-512-512s232.727-512 512-512 512 232.727 512 512-226.078 512-512 512zM629.748 9.143v146.286h-66.494v-146.286c-212.779 13.299-379.013 179.532-405.61 392.312h159.584v66.494h-159.584c6.649 226.078 186.182 405.61 412.26 425.558v-179.532h66.494v172.883c226.078-19.948 398.961-199.481 412.26-425.558h-166.234v-66.494h159.584c-26.597-206.13-199.481-372.364-412.26-385.662zM596.501 521.143c-39.896 0-73.143-33.247-73.143-73.143s33.247-73.143 73.143-73.143 73.143 33.247 73.143 73.143c0 39.896-33.247 73.143-73.143 73.143z" />
<glyph unicode="&#xe925;" glyph-name="home-01" horiz-adv-x="1193" d="M1087.542 474.597l-438.857 465.455c-26.597 26.597-79.792 26.597-106.39 0l-438.857-465.455c-13.299-19.948-19.948-39.896-6.649-59.844 6.649-19.948 26.597-33.247 46.545-33.247h46.545v-372.364c0-6.649 0-33.247 13.299-53.195 13.299-13.299 33.247-19.948 59.844-19.948h259.325v339.117h132.987v-339.117h259.325c0 0 0 0 6.649 0 66.494 0 73.143 53.195 73.143 73.143v372.364h46.545c19.948 0 39.896 13.299 53.195 33.247s13.299 39.896-6.649 59.844zM1047.645 434.701h-106.39v-425.558c0-6.649 0-13.299 0-19.948 0 0-6.649 0-19.948 0h-206.13v339.117h-239.377v-339.117h-206.13c-13.299 0-19.948 6.649-19.948 6.649s0 6.649 0 13.299v425.558h-106.39l438.857 465.455c6.649 6.649 13.299 6.649 19.948 0l445.507-465.455z" />
<glyph unicode="&#xe926;" glyph-name="Leakage-01" horiz-adv-x="1193" d="M1121.799 860.26v0c0 19.948-19.948 33.247-39.896 33.247s-33.247 0-53.195 0l-139.636 6.649c0 13.299-6.649 13.299-13.299 19.948l-73.143 33.247c-6.649 6.649-19.948 6.649-26.597 6.649h-531.948c-53.195 0-119.688-46.545-119.688-106.39 0-26.597 6.649-46.545 13.299-59.844-26.597-13.299-46.545-46.545-46.545-79.792 0-19.948 6.649-39.896 13.299-53.195-13.299-13.299-33.247-39.896-33.247-73.143 0-26.597 6.649-39.896 19.948-59.844-26.597-19.948-39.896-53.195-39.896-86.442 0-13.299 0-19.948 0-33.247 13.299-46.545 53.195-79.792 99.74-79.792h279.273l-26.597-146.286c-6.649-19.948 0-46.545 0-66.494 19.948-73.143 53.195-126.338 66.494-146.286 6.649-6.649 13.299-19.948 26.597-19.948 26.597-13.299 46.545-13.299 66.494-13.299 33.247 0 66.494 13.299 79.792 26.597 19.948 13.299 33.247 39.896 33.247 59.844v146.286c26.597 86.442 152.935 226.078 166.234 246.026l46.545 33.247c6.649 6.649 6.649 6.649 13.299 13.299h26.597c53.195 6.649 99.74 6.649 152.935 13.299 19.948 0 33.247 19.948 33.247 33.247l6.649 19.948c6.649 26.597 13.299 53.195 19.948 79.792 0 79.792-6.649 159.584-19.948 252.675zM855.825 494.545l-46.545-39.896c-6.649 0-6.649-6.649-6.649-6.649-26.597-26.597-146.286-166.234-172.883-259.325 0-6.649 0-13.299 0-19.948v-146.286c0-6.649 0-13.299-6.649-19.948-26.597-19.948-53.195-19.948-86.442-6.649-13.299 19.948-39.896 66.494-59.844 132.987-6.649 13.299-6.649 26.597 0 46.545l33.247 166.234c0 6.649 0 19.948-6.649 26.597l-13.299 13.299h-339.117c-26.597 0-46.545 13.299-46.545 33.247 0 6.649 0 13.299 0 19.948 0 26.597 13.299 39.896 33.247 53.195 6.649 6.649 13.299 19.948 13.299 33.247s0 26.597-13.299 33.247c-6.649 6.649-13.299 19.948-13.299 33.247 0 19.948 19.948 39.896 26.597 46.545 13.299 0 13.299 13.299 19.948 19.948v19.948l-13.299 6.649c0 6.649-6.649 13.299-6.649 33.247s19.948 39.896 26.597 46.545c19.948 13.299 19.948 33.247 13.299 53.195-6.649 6.649-13.299 19.948-13.299 39.896 0 26.597 33.247 53.195 59.844 53.195h538.597l73.143-33.247 6.649-6.649c0 0 0-372.364 0-372.364zM1075.253 614.234c-6.649-26.597-13.299-53.195-19.948-73.143v-6.649c-46.545-6.649-93.091-6.649-132.987-13.299l-6.649 339.117 113.039-13.299c13.299 0 26.597 0 46.545 0 6.649-93.091 13.299-159.584 0-232.727z" />
<glyph unicode="&#xe927;" glyph-name="Icons_resolved-full-01-01" d="M509.326 959.782c-138.788 0-266.011-52.046-364.319-156.137-98.308-98.308-150.354-225.531-144.572-358.537 0-283.36 231.314-508.891 514.674-508.891s508.891 231.314 508.891 514.674c0 283.36-231.314 508.891-514.674 508.891zM445.715 242.708v0l-23.131-17.349-23.131-23.131-5.783 5.783-23.131-11.566-127.223 231.314 80.96 40.48 75.177-144.572 312.273 318.057 63.611-63.611-329.622-335.406z" />
<glyph unicode="&#xe928;" glyph-name="question-icon-01" d="M512 960c-285.091 0-512-226.909-512-512s226.909-512 512-512 512 226.909 512 512-226.909 512-512 512zM512 93.091c-52.364 0-93.091 40.727-93.091 93.091s40.727 93.091 93.091 93.091 93.091-40.727 93.091-93.091-40.727-93.091-93.091-93.091zM593.455 354.909c0-11.636-11.636-23.273-23.273-23.273h-116.364c-11.636 0-23.273 11.636-23.273 29.091v5.818c0 81.455 64 116.364 104.727 145.455 46.545 23.273 69.818 40.727 69.818 69.818 0 40.727-52.364 69.818-93.091 69.818-52.364 0-81.455-29.091-116.364-75.636-5.818-11.636-23.273-11.636-34.909 0l-69.818 52.364c-11.636 5.818-11.636 17.455-5.818 29.091 52.364 87.273 128 133.818 238.545 133.818 116.364 0 244.364-93.091 244.364-215.273 0-157.091-174.545-162.909-174.545-221.091z" />
<glyph unicode="&#xe929;" glyph-name="score-01" horiz-adv-x="1193" d="M870.747-64h-546.133v54.613c0 34.133 34.133 54.613 61.44 61.44 0 6.827 6.827 20.48 13.653 27.307 20.48 27.307 68.267 34.133 109.227 34.133v6.827c20.48 204.8 0 232.107-6.827 238.933-34.133 13.653-68.267 34.133-95.573 61.44-13.653-13.653-34.133-20.48-47.787-27.307-27.307 0-47.787 6.827-54.613 27.307s-6.827 34.133 0 40.96c-40.96 20.48-75.093 40.96-109.227 68.267-88.747 81.92-143.36 286.72-116.053 341.333 13.653 27.307 34.133 47.787 68.267 47.787h109.227c0 6.827 0 13.653 0 13.653v27.307h682.667v-27.307c0 0 0-6.827 0-13.653h109.227c27.307 0 54.613-20.48 68.267-47.787v0c20.48-61.44-27.307-259.413-116.053-341.333-34.133-27.307-68.267-47.787-109.227-54.613 6.827-6.827 6.827-20.48 0-40.96s-27.307-34.133-54.613-27.307c-13.653 0-34.133 6.827-47.787 27.307-27.307-34.133-61.44-54.613-95.573-68.267-6.827-6.827-27.307-34.133-6.827-238.933v-6.827c40.96 0 88.747-6.827 109.227-34.133 6.827-6.827 6.827-20.48 13.653-27.307 27.307-13.653 61.44-34.133 61.44-61.44 0 0 0-61.44 0-61.44zM379.227-9.387h443.733v6.827c0 0-27.307 13.653-40.96 20.48l-20.48 6.827v20.48c0 0 0 6.827-6.827 13.653s-47.787 13.653-88.747 13.653h-27.307v27.307c0 6.827 0 13.653 0 27.307-20.48 163.84-20.48 266.24 34.133 293.547 40.96 13.653 75.093 40.96 102.4 68.267l27.307 27.307 20.48 34.133c54.613 95.573 68.267 218.453 68.267 300.373v40.96c0 6.827 0 6.827 0 13.653h-587.093c0-6.827 0-6.827 0-13.653v-40.96c0-81.92 13.653-204.8 68.267-300.373l27.307-34.133 20.48-27.307c27.307-34.133 61.44-54.613 102.4-68.267 54.613-20.48 54.613-129.707 34.133-293.547 0-13.653 0-27.307 0-27.307v-27.307h-27.307c-40.96 0-81.92-6.827-88.747-13.653 0-6.827 0-13.653 0-13.653v-20.48l-20.48-13.653c-20.48-6.827-40.96-13.653-40.96-20.48zM816.133 509.44l6.827-34.133c0-6.827 6.827-13.653 13.653-13.653 0 0 0 0 6.827 0-6.827 0-13.653 6.827-13.653 13.653 0 13.653 6.827 27.307 20.48 34.133 0 0 0 0-6.827 0h-27.307zM351.92 509.44c13.653-13.653 20.48-20.48 20.48-34.133 0-6.827-6.827-13.653-6.827-20.48 0 0 0 0 6.827 0s13.653 6.827 13.653 13.653l6.827 34.133-40.96 6.827zM877.573 475.307v0 0zM167.6 823.467c0-47.787 34.133-170.667 88.747-225.28 13.653-13.653 34.133-20.48 54.613-27.307-34.133 88.747-47.787 184.32-54.613 252.587h-88.747zM945.84 823.467c-6.827-75.093-20.48-170.667-54.613-252.587 20.48 6.827 34.133 13.653 54.613 27.307v0c47.787 54.613 81.92 177.493 88.747 225.28h-88.747z" />
<glyph unicode="&#xe92a;" glyph-name="Arrow-for-menu-01" d="M434.089 203.128h166.956l422.955 478.61h-122.435c-11.129 0-22.263 0-33.392 0s-22.263-11.129-22.263-11.129l-300.52-322.783-33.392-22.263-22.263 22.263-300.52 322.783c-11.129 11.129-33.392 22.263-55.65 22.263h-133.564l434.089-489.739z" />
<glyph unicode="&#xe92b;" glyph-name="Icons_Support" d="M512 960c-278.754 0-500.621-227.555-500.621-512s221.867-512 500.621-512 500.621 227.555 500.621 512-221.867 512-500.621 512zM443.734 772.267h130.843v-386.845h-130.843v386.845zM512 123.733c-51.199 0-91.021 39.822-91.021 96.712 0 51.199 39.822 96.712 91.021 96.712s91.021-39.822 91.021-96.712-39.822-96.712-91.021-96.712z" />
<glyph unicode="&#xe92c;" glyph-name="Meta-analysis, brand-on-meta" horiz-adv-x="1135" d="M998.189 406.329c-0.371 0.004-0.808 0.006-1.247 0.006-31.85 0-60.65-13.062-81.334-34.121l-0.017-0.017-173.386 102.393c10.781 24.479 17.056 53.017 17.056 83.023 0 28.122-5.513 54.958-15.516 79.484l0.508-1.408 105.124 51.879c19.566-34.985 56.383-58.249 98.633-58.249 62.206 0 112.633 50.427 112.633 112.633s-50.427 112.633-112.633 112.633c-62.206 0-112.633-50.427-112.633-112.633 0-0.401 0.002-0.801 0.006-1.201v0.061c0.177-8.923 1.286-17.494 3.236-25.74l-0.164 0.824-107.513-54.61c-37.871 65.083-107.294 108.136-186.774 108.136-44.924 0-86.635-13.755-121.151-37.282l0.745 0.479-40.616 49.149c12.845 18.087 20.534 40.619 20.534 64.947 0 57.723-43.29 105.335-99.175 112.14l-0.544 0.054c-4.732 0.694-10.195 1.090-15.75 1.090-57.634 0-105.307-42.641-113.194-98.097l-0.071-0.609c-0.561-4.248-0.881-9.162-0.881-14.149 0-58.097 43.459-106.043 99.643-113.103l0.56-0.058c2.247-0.167 4.866-0.263 7.509-0.263s5.262 0.096 7.856 0.283l-0.348-0.020c28.047 0.124 53.694 10.298 73.551 27.103l-0.168-0.139 38.909-47.443c-43.815-38.814-71.303-95.207-71.334-158.021v-0.006c0-1.706 0-3.754 0-5.461h-82.597c-7.674 55.977-55.185 98.639-112.66 98.639-62.771 0-113.657-50.886-113.657-113.657s50.886-113.657 113.657-113.657c57.475 0 104.986 42.663 112.594 98.047l0.066 0.592h86.010c13.448-76.093 65.628-137.45 135.054-163.683l1.471-0.488-74.065-195.231c-7.17 1.709-15.407 2.703-23.873 2.73h-0.019c-62.477-0.388-112.973-51.124-112.973-113.655 0-62.771 50.886-113.657 113.657-113.657s113.657 50.886 113.657 113.657c0 0.119 0 0.239-0.001 0.357v-0.019c-0.197 43.46-24.978 81.087-61.146 99.708l-0.632 0.295 75.771 197.619c12.922-2.824 27.766-4.442 42.987-4.442 0.486 0 0.972 0.002 1.457 0.005h-0.075c0.205-0.001 0.448-0.001 0.69-0.001 76.91 0 144.343 40.572 182.067 101.479l0.528 0.916 170.656-100.004c-8.31-15.426-13.193-33.76-13.193-53.235 0-62.959 51.039-113.998 113.998-113.998s113.998 51.039 113.998 113.998c0 62.959-51.039 113.998-113.998 113.998-0.521 0-1.042-0.003-1.562-0.011l0.079 0.001zM950.064 822.388c45.7-0.387 82.597-37.523 82.597-83.277 0-45.994-37.285-83.28-83.28-83.28s-83.278 37.284-83.28 83.277v0c0.193 46.036 37.558 83.28 83.621 83.28 0.12 0 0.241 0 0.361-0.001h-0.019zM372.224 835.699c-5.278-41.755-40.574-73.723-83.336-73.723-46.371 0-83.963 37.591-83.963 83.963s37.591 83.963 83.963 83.963c0.020 0 0.039 0 0.059 0h11.26c22.763-3.112 42.301-14.913 55.491-31.892l0.143-0.19c10.783-13.618 17.298-31.044 17.298-49.992 0-4.28-0.332-8.483-0.972-12.583l0.059 0.455zM135.012 452.064c-45.847 0.193-82.939 37.405-82.939 83.279 0 45.994 37.285 83.28 83.28 83.28s83.279-37.285 83.28-83.279v0c-0.194-46.036-37.558-83.28-83.621-83.28 0 0 0 0-0.001 0v0zM456.187 50c0.002-0.203 0.003-0.443 0.003-0.682 0-46.371-37.591-83.963-83.963-83.963s-83.963 37.591-83.963 83.963c0 46.37 37.59 83.962 83.959 83.963v0c0.102 0 0.222 0.001 0.342 0.001 46.063 0 83.427-37.244 83.621-83.262v-0.018zM544.927 372.197c-100.596 0.581-181.919 82.264-181.919 182.94 0 101.036 81.906 182.944 182.944 182.944s182.944-81.906 182.944-182.944c0-0.119 0-0.238 0-0.357v0.019c-0.581-100.972-82.569-182.602-183.623-182.602-0.121 0-0.242 0-0.363 0h0.019zM998.189 208.368c-45.7 0.387-82.597 37.523-82.597 83.277 0 45.994 37.285 83.28 83.28 83.28s83.278-37.284 83.28-83.277v0c-0.767-45.592-37.908-82.256-83.61-82.256-0.124 0-0.248 0-0.371 0.001h0.019z" />
<glyph unicode="&#xe92d;" horiz-adv-x="673" d="M568.403 186.384h-34.045l-99.118-247.363h25.856c1.089-0.407 2.348-0.642 3.663-0.642s2.573 0.235 3.738 0.666l-0.075-0.025c1.772 1.54 3.22 3.402 4.264 5.5l0.046 0.103 23.271 61.625h110.753l22.84-59.901c1.465-3.043 3.673-5.528 6.394-7.285l0.070-0.042c1.089-0.407 2.348-0.642 3.663-0.642s2.573 0.235 3.738 0.666l-0.075-0.025h25.856zM543.839 131.223c1.12 2.79 2.299 6.379 3.282 10.048l0.165 0.726c0 0.029 0 0.063 0 0.097 0 4.485 0.952 8.749 2.665 12.599l-0.078-0.197c2.14-9.096 4.655-16.862 7.715-24.347l-0.389 1.076 38.785-100.411h-89.205z" />
<glyph unicode="&#xe92e;" glyph-name="Brand-connectivity-issues" horiz-adv-x="1138" d="M597.606 304.058c-87.459 0-163.986 51.018-196.783 131.189-3.644 10.932 0 25.509 10.932 29.153s25.509 0 29.153-10.932v0c36.441-87.459 134.832-127.545 222.291-91.103 0 0 0 0 0 0l273.31 116.612c87.459 36.441 127.545 134.832 91.103 222.291s-134.832 127.545-222.291 91.103c0 0 0 0 0 0l-211.359-87.459c-10.932-3.644-25.509 0-29.153 10.932 0 0 0 0 0 0-3.644 10.932 0 25.509 10.932 29.153l207.715 87.459c109.324 47.373 236.869-3.644 280.597-112.968 0 0 0 0 0 0 43.73-109.324-7.289-233.224-112.968-280.597l-273.31-116.612c-21.865-10.932-51.018-18.221-80.17-18.221zM346.162-63.999c-43.73 0-87.459 14.576-120.256 40.086-98.391 69.238-120.256 204.070-54.662 302.462l160.342 229.58c65.594 98.391 200.427 120.256 298.818 54.662 0 0 0 0 0 0 10.932-7.289 14.576-21.865 7.289-32.797 0 0 0 0 0 0-7.289-10.932-21.865-10.932-29.153-7.289 0 0 0 0 0 0-76.527 54.662-182.207 36.441-236.869-40.086 0 0 0 0 0 0l-160.342-229.58c-54.662-76.527-36.441-182.207 43.73-236.869 76.527-54.662 182.207-36.441 236.869 40.086 0 0 0 0 0 0l109.324 160.342c7.289 10.932 18.221 14.576 29.153 7.289s14.576-18.221 7.289-29.153c0 0 0-3.644-3.644-3.644l-109.324-160.342c-40.086-58.306-105.68-94.748-178.562-94.748zM473.706 752.285l-36.441 7.289 32.797 200.427 36.441-7.289-32.797-200.427zM306.076 697.623l-116.612 163.986 29.153 21.865 116.612-163.986-29.153-21.865zM255.059 562.791l-196.783 32.797 7.289 36.441 196.783-32.797-7.289-36.441z" />
<glyph unicode="&#xe92f;" glyph-name="Brandcom-sold-out" horiz-adv-x="1135" d="M566.316 959.999c-272.674-6.563-491.21-229.162-491.21-502.804 0-3.233 0.030-6.46 0.091-9.678l-0.007 0.483c-0.053-2.731-0.084-5.95-0.084-9.178 0-273.919 218.978-496.692 491.427-502.812l0.57-0.010c273.321 5.475 492.792 228.334 492.792 502.452 0 3.357-0.033 6.706-0.098 10.047l0.007-0.5c0.057 2.836 0.091 6.181 0.091 9.532 0 274.395-219.914 497.428-493.107 502.461l-0.472 0.007zM566.316-24.616c-250.921 6.548-451.833 211.516-451.833 463.408 0 3.238 0.033 6.467 0.099 9.688l-0.007-0.482c-0.063 2.852-0.099 6.212-0.099 9.581 0 251.955 201.181 456.922 451.668 463.023l0.567 0.011c251.742-5.247 453.809-210.56 453.809-463.069 0-3.357-0.035-6.706-0.107-10.045l0.008 0.499c0.063-2.841 0.098-6.19 0.098-9.547 0-252.726-202.243-458.215-453.713-463.454l-0.489-0.008zM753.787 635.864c-3.569 3.598-8.516 5.825-13.982 5.825s-10.412-2.227-13.981-5.824l-0.001-0.001-159.507-157.539-157.539 157.539c-3.673 3.529-8.672 5.701-14.178 5.701s-10.505-2.173-14.186-5.709l0.007 0.006c-3.576-3.506-5.792-8.386-5.792-13.784s2.216-10.28 5.789-13.782l0.004-0.004 159.507-157.539-159.507-159.507c-3.598-3.569-5.825-8.516-5.825-13.982s2.227-10.412 5.824-13.981l0.001-0.001c3.734-3.397 8.71-5.484 14.172-5.513h0.006c5.541 0.015 10.553 2.27 14.178 5.908v0l157.539 157.539 159.507-157.539c3.626-3.638 8.637-5.893 14.176-5.908h0.002c5.327 0.132 10.146 2.202 13.801 5.529l-0.017-0.016c3.598 3.569 5.825 8.516 5.825 13.982s-2.227 10.412-5.824 13.981l-0.001 0.001-159.902 159.507 159.902 157.539c3.576 3.506 5.792 8.386 5.792 13.784s-2.216 10.28-5.789 13.782l-0.004 0.004z" />
<glyph unicode="&#xe930;" glyph-name="Latency" horiz-adv-x="1135" d="M480.735 428.18s0-2.088 0-2.784c-0.032-0.364-0.049-0.789-0.049-1.218s0.018-0.853 0.054-1.272l-0.003 0.055c0.639-1.101 1.452-2.025 2.414-2.768l0.021-0.016 133.29-104.405c2.828-1.946 6.322-3.114 10.088-3.132h0.004c0.178-0.008 0.386-0.011 0.596-0.011 8.841 0 16.009 7.167 16.009 16.009 0 5.267-2.544 9.94-6.469 12.858l-0.043 0.030-124.242 98.836v353.585c0 9.034-7.323 16.356-16.356 16.356v0c-0.001 0-0.002 0-0.004 0-8.841 0-16.009-7.167-16.009-16.009 0-0.122 0.001-0.244 0.004-0.367v0.018-362.633c0.070-1.144 0.318-2.211 0.72-3.2l-0.025 0.068zM962.737 345.004c0-11.148-9.037-20.185-20.185-20.185s-20.185 9.037-20.185 20.185c0 11.148 9.037 20.185 20.185 20.185s20.185-9.037 20.185-20.185zM942.552 375.282c7.537 0.194 13.573 6.35 13.573 13.917 0 0.001 0 0.003 0 0.004v0 99.184c-1.097 6.687-6.833 11.727-13.746 11.727s-12.65-5.040-13.736-11.645l-0.011-0.080v-99.184c0-7.688 6.232-13.921 13.921-13.921v0zM1131.176 324.472l-141.99 240.479c-7.819 18.73-24.87 32.19-45.31 34.773l-0.28 0.029c-20.443-1.834-37.516-14.61-45.45-32.364l-0.139-0.349-143.731-243.611c-1.951-3.405-3.111-7.481-3.132-11.826v-0.006c0.951-24.959 21.234-44.877 46.251-45.241h289.933c0.104-0.001 0.226-0.001 0.349-0.001 26.018 0 47.132 20.993 47.328 46.965v0.018c-0.274 4.188-1.666 8.004-3.877 11.211l0.048-0.075zM1087.326 297.674h-289.898c-0.183-0.009-0.398-0.013-0.613-0.013-7.092 0-13.004 5.051-14.336 11.752l-0.015 0.093 139.207 237.695c15.661 24.709 21.925 23.665 37.237 0l141.295-238.74c-1.612-5.89-6.669-10.242-12.821-10.785l-0.056-0.004zM956.82 234.335c-2.164 1.13-4.726 1.792-7.443 1.792-6.252 0-11.686-3.508-14.439-8.664l-0.043-0.088c-81.517-154.287-240.936-257.64-424.493-257.64-264.28 0-478.522 214.242-478.522 478.522s214.242 478.522 478.522 478.522c147.862 0 280.061-67.063 367.838-172.433l0.625-0.772c19.658-24.281 37.677-51.525 52.968-80.433l1.323-2.743-61.25 30.626c-2.092 1.043-4.557 1.653-7.165 1.653-6.472 0-12.065-3.758-14.717-9.212l-0.043-0.098c-1.072-2.091-1.7-4.562-1.7-7.18 0-6.294 3.633-11.74 8.915-14.355l0.093-0.042 110.669-54.639 54.639 110.321c1.085 2.128 1.72 4.64 1.72 7.302 0 6.362-3.632 11.876-8.936 14.58l-0.092 0.043c-2.091 1.072-4.562 1.7-7.18 1.7-6.294 0-11.74-3.633-14.355-8.915l-0.042-0.093-29.929-60.555c-18.208 35.619-38.687 66.326-62.224 94.381l0.625-0.765c-94.801 112.642-235.864 183.723-393.529 183.723-72.969 0-142.381-15.224-205.234-42.671l3.306 1.286c-182.078-81.021-306.731-260.343-306.731-468.778 0-282.219 228.523-511.062 510.619-511.583h0.049c195.64 0.603 365.39 110.856 451.078 272.503l1.343 2.777c1.226 2.239 1.948 4.905 1.948 7.74 0 6.036-3.269 11.309-8.134 14.143l-0.078 0.042z" />
<glyph unicode="&#xe931;" glyph-name="Market-Visibility" horiz-adv-x="1135" d="M1127.198 431.324c-44.35 56.058-281.002 335.996-559.876 335.996s-513.396-279.937-559.52-335.996l-7.806-9.58 8.515-9.224c44.705-47.543 281.357-283.841 558.811-283.841s514.46 236.297 558.811 283.841l8.87 9.224zM567.323 155.998c-251.198 0-469.402 204.72-529.008 265.746 58.187 70.96 276.744 315.062 529.008 315.062s470.82-243.748 529.362-315.062c-59.606-59.606-278.164-265.746-529.362-265.746zM564.484 709.132c-139.315-3.537-250.901-117.314-250.901-257.152 0-1.898 0.021-3.792 0.061-5.682l-0.004 0.281c-0.042-1.714-0.064-3.731-0.064-5.755 0-139.842 111.59-253.62 250.581-257.147l0.327-0.007c139.474 3.339 251.263 117.195 251.263 257.161 0 2.021-0.023 4.036-0.070 6.044l0.005-0.298c0.036 1.604 0.057 3.496 0.057 5.392 0 139.963-111.785 253.818-250.945 257.155l-0.31 0.005zM564.484 212.411c-123.443 3.524-222.169 104.435-222.169 228.405 0 1.903 0.023 3.799 0.070 5.69l-0.005-0.281c-0.040 1.611-0.064 3.507-0.064 5.409 0 123.969 98.726 224.879 221.844 228.397l0.325 0.008c123.598-3.331 222.524-104.32 222.524-228.413 0-1.899-0.023-3.792-0.069-5.679l0.005 0.28c0.035-1.502 0.056-3.271 0.056-5.046 0-124.091-98.92-225.078-222.207-228.407l-0.308-0.007z" />
<glyph unicode="&#xe932;" glyph-name="Member-rates-comparison" horiz-adv-x="1135" d="M1074.93 392.866c13.444 14.275 21.706 33.563 21.706 54.78s-8.262 40.505-21.743 54.821l0.038-0.040-65.736 69.389c-9.087 10.004-14.65 23.352-14.65 37.999 0 0.764 0.015 1.525 0.045 2.282l-0.003-0.109 14.608 91.301c0.586 3.646 0.921 7.849 0.921 12.13 0 39.537-28.558 72.404-66.171 79.098l-0.486 0.072-87.648 14.608c-15.939 2.207-29.227 11.874-36.392 25.302l-0.127 0.261-43.824 83.996c-14.002 24.786-40.173 41.245-70.188 41.245-13.014 0-25.306-3.094-36.18-8.587l0.46 0.21-80.345-40.172c-6.378-3.292-13.919-5.224-21.912-5.224s-15.534 1.93-22.184 5.351l0.272-0.127-83.996 39.807c-10.072 4.612-21.848 7.301-34.253 7.301-30.179 0-56.639-15.915-71.449-39.811l-0.207-0.359-40.172-83.996c-7.634-13.388-20.753-22.902-36.217-25.522l-0.304-0.043-91.301-14.608c-38.141-8.461-66.242-41.998-66.242-82.098 0-3.242 0.183-6.441 0.541-9.587l-0.036 0.385 14.608-91.301c0.377-2.151 0.593-4.628 0.593-7.154 0-13.185-5.872-25-15.144-32.969l-0.057-0.048-62.084-69.389c-13.21-14.376-21.307-33.633-21.307-54.78s8.097-40.405 21.36-54.839l-0.053 0.058 62.084-65.736c9.514-8.652 15.462-21.080 15.462-34.896 0-3.159-0.31-6.244-0.903-9.227l0.049 0.3-14.608-91.301c-0.107-1.594-0.169-3.456-0.169-5.331 0-40.049 27.907-73.581 65.337-82.207l0.568-0.11 91.301-18.26c16.323-1.13 30.049-11.192 36.41-25.292l0.109-0.272 40.172-80.345c14.109-24.729 40.308-41.129 70.338-41.129 12.952 0 25.19 3.051 36.037 8.472l-0.467-0.211 83.996 40.172c6.34 3.465 13.889 5.503 21.912 5.503s15.572-2.037 22.155-5.624l80.102-40.050c10.389-6.544 22.947-10.572 36.417-10.954l0.102-0.002c30.192 0.849 56.136 18.229 69.177 43.378l0.21 0.447 43.824 80.345c5.813 14.879 19.917 25.283 36.486 25.563h0.035l87.648 18.26c37.883 5.269 66.731 37.446 66.731 76.363 0 3.463-0.228 6.874-0.672 10.217l0.043-0.393-14.608 91.301c-0.105 1.328-0.164 2.876-0.164 4.438 0 15.112 5.597 28.918 14.831 39.455l-0.058-0.069zM990.933 345.389c-14.295-12.889-23.242-31.472-23.242-52.146 0-4.809 0.484-9.505 1.406-14.041l-0.076 0.451 10.956-91.301c0.423-2.37 0.665-5.099 0.665-7.884 0-23.417-17.084-42.843-39.469-46.494l-0.272-0.037-91.301-18.26c-23.985-4.324-43.77-19.301-54.579-39.754l-0.201-0.417-43.824-80.345c-7.696-16.451-24.109-27.643-43.136-27.643-7.135 0-13.901 1.574-19.973 4.393l0.294-0.123h-2.921l-83.996 40.172-32.868 7.304-36.52-7.304-80.345-40.172c-6.884-3.682-15.058-5.845-23.739-5.845-19.559 0-36.552 10.982-45.15 27.117l-0.134 0.276-41.633 81.44c-11.605 21.805-32.948 37.101-58.069 40.137l-0.363 0.036-87.648 18.26c-24.834 1.695-44.338 22.256-44.338 47.372 0 1.322 0.054 2.631 0.16 3.926l-0.011-0.17s0 2.921 0 4.382l14.608 91.301c0.934 4.245 1.468 9.123 1.468 14.124 0 20.535-9.016 38.965-23.305 51.547l-0.075 0.065-65.736 69.389c-8.335 9.118-13.442 21.309-13.442 34.694s5.107 25.577 13.478 34.734l-0.036-0.039 66.102 65.006c14.067 13.797 22.786 33.003 22.786 54.246 0 4.056-0.318 8.037-0.93 11.921l0.056-0.43-14.608 91.301c-0.359 2.282-0.564 4.916-0.564 7.596 0 25.543 18.598 46.742 42.992 50.795l0.3 0.042 87.648 14.608c25.845 4.597 47.083 21.019 58.222 43.358l0.21 0.466 40.172 80.345c9.638 16.143 27.015 26.786 46.879 26.786 8.16 0 15.899-1.795 22.846-5.013l-0.336 0.139 80.345-40.172c10.106-5.175 22.046-8.209 34.694-8.209s24.589 3.033 35.132 8.412l-0.439-0.204 83.996 40.172c6.534 3.606 14.324 5.729 22.608 5.729 17.876 0 33.444-9.88 41.543-24.477l0.124-0.243c0.062-0.439 0.098-0.946 0.098-1.461s-0.036-1.022-0.105-1.519l0.007 0.057 43.824-80.345c10.731-21.935 30.451-38.060 54.229-43.714l0.551-0.11 91.301-14.608c23.485-4.768 40.912-25.248 40.912-49.798 0-3.051-0.269-6.038-0.785-8.94l0.045 0.306-10.956-91.301c-0.512-3.336-0.804-7.186-0.804-11.102 0-21.352 8.684-40.675 22.713-54.631l0.003-0.003 62.084-65.736c8.49-9.052 13.706-21.264 13.706-34.694s-5.216-25.642-13.732-34.722l0.026 0.027zM673.209 628.42c-0.237 0.010-0.515 0.016-0.795 0.016-3.312 0-6.433-0.817-9.173-2.259l0.108 0.052c-2.772-1.727-5.084-3.922-6.889-6.498l-0.049-0.075-266.597-349.133h33.598c0.173-0.007 0.378-0.011 0.583-0.011 2.892 0 5.592 0.82 7.881 2.24l-0.064-0.037c2.435 1.34 4.494 3.049 6.181 5.079l0.028 0.035 268.058 350.593zM446.783 453.124c11.211 0.090 21.867 2.363 31.598 6.414l-0.556-0.205c10.11 4.108 18.734 9.921 25.926 17.161l0.004 0.004c7.434 7.857 13.381 17.209 17.337 27.548l0.192 0.574c4.394 10.458 6.946 22.612 6.946 35.363 0 0.407-0.002 0.813-0.008 1.219l0.001-0.062c0.001 0.133 0.001 0.289 0.001 0.445 0 12.963-2.412 25.362-6.812 36.774l0.237-0.7c-3.895 11.017-9.611 20.496-16.867 28.562l0.067-0.076c-7.118 7.472-15.762 13.421-25.441 17.354l-0.489 0.175c-9.545 3.632-20.58 5.768-32.105 5.844h-0.033c-11.547 0-22.593-2.144-32.762-6.054l0.624 0.211c-10.119-4.235-18.742-10.164-25.914-17.514l-0.016-0.016c-7.307-7.984-13.139-17.459-16.975-27.897l-0.189-0.588c-3.707-10.532-5.85-22.677-5.85-35.321 0-0.422 0.002-0.843 0.007-1.263l-0.001 0.064c-0.004-0.357-0.007-0.777-0.007-1.199 0-12.644 2.142-24.789 6.083-36.090l-0.233 0.768c4.019-10.901 9.851-20.256 17.211-28.172l-0.047 0.051c7.195-7.244 15.82-13.056 25.417-16.98l0.512-0.186c9.374-3.928 20.269-6.209 31.696-6.209 0.155 0 0.31 0 0.466 0.001h-0.024zM404.055 513.017c-2.091 8.336-3.291 17.905-3.291 27.756s1.2 19.419 3.461 28.571l-0.171-0.816c2.070 7.308 5.46 13.656 9.931 19.079l-0.071-0.089c3.766 4.577 8.545 8.184 14.003 10.5l0.24 0.090c5.146 2.082 11.115 3.29 17.365 3.29 0.187 0 0.372-0.001 0.558-0.003h-0.028c0.091 0.001 0.2 0.001 0.308 0.001 6.201 0 12.12-1.207 17.535-3.4l-0.314 0.112c5.841-2.357 10.747-5.972 14.561-10.533l0.047-0.057c4.548-5.269 7.963-11.647 9.788-18.666l0.072-0.325c2.341-7.547 3.688-16.223 3.688-25.213 0-0.894-0.013-1.785-0.039-2.672l0.003 0.13c0.024-0.757 0.037-1.648 0.037-2.542 0-8.991-1.348-17.667-3.854-25.837l0.164 0.623c-1.895-7.097-5.312-13.235-9.894-18.298l0.034 0.037c-3.736-4.666-8.692-8.208-14.387-10.16l-0.22-0.066c-5.101-2.081-11.020-3.288-17.221-3.288-0.108 0-0.217 0-0.325 0.001h0.017c-0.157-0.002-0.343-0.003-0.53-0.003-6.251 0-12.219 1.208-17.685 3.403l0.319-0.114c-5.748 2.134-10.561 5.653-14.194 10.163l-0.048 0.063c-4.415 5.092-7.806 11.201-9.775 17.919l-0.085 0.341zM707.538 421.716c-7.074 7.752-15.722 13.941-25.452 18.080l-0.478 0.181c-9.128 3.704-19.717 5.854-30.807 5.854-0.468 0-0.935-0.003-1.4-0.011l0.070 0.001c-0.336 0.004-0.732 0.008-1.13 0.008-11.158 0-21.816-2.148-31.581-6.053l0.574 0.202c-9.992-4.237-18.496-10.164-25.54-17.504l-0.025-0.026c-7.366-7.836-13.207-17.202-16.985-27.56l-0.179-0.561c-3.939-11.063-6.215-23.824-6.215-37.118 0-0.432 0.002-0.864 0.007-1.295l-0.001 0.065c0-0.048 0-0.106 0-0.162 0-13.030 2.274-25.53 6.449-37.121l-0.241 0.764c7.432-20.563 22.759-36.724 42.228-45.093l0.501-0.191c9.191-3.703 19.848-5.85 31.008-5.85 0.397 0 0.794 0.002 1.19 0.008l-0.060-0.001c0.241-0.002 0.525-0.004 0.811-0.004 10.892 0 21.283 2.148 30.771 6.044l-0.54-0.196c10.119 4.235 18.742 10.164 25.914 17.514l0.016 0.016c7.432 7.741 13.378 16.973 17.338 27.194l0.191 0.561c4.394 10.458 6.946 22.612 6.946 35.363 0 0.407-0.002 0.813-0.008 1.219l0.001-0.062c0.004 0.366 0.007 0.796 0.007 1.228 0 13.292-2.277 26.054-6.46 37.915l0.245-0.798c-4.047 10.638-9.873 19.75-17.194 27.422l0.030-0.031zM691.834 327.494c-1.979-7.076-5.381-13.199-9.903-18.309l0.043 0.048c-3.89-4.477-8.793-7.972-14.36-10.141l-0.249-0.085c-4.873-1.865-10.508-2.946-16.397-2.946-0.526 0-1.052 0.009-1.575 0.026l0.076-0.002c-0.381-0.011-0.83-0.018-1.281-0.018-5.837 0-11.422 1.078-16.567 3.046l0.318-0.107c-5.814 2.254-10.718 5.749-14.57 10.181l-0.038 0.045c-4.213 5.138-7.475 11.237-9.406 17.902l-0.089 0.359c-2.322 8.049-3.656 17.295-3.656 26.851 0 0.318 0.001 0.636 0.004 0.953v-0.048c-0.001 0.19-0.002 0.414-0.002 0.638 0 9.776 1.334 19.241 3.829 28.222l-0.175-0.739c1.938 7.165 5.211 13.399 9.565 18.713l-0.070-0.088c3.86 4.619 8.767 8.234 14.363 10.503l0.245 0.088c5.101 2.081 11.020 3.288 17.221 3.288 0.108 0 0.217 0 0.325-0.001h-0.017c0.157 0.002 0.343 0.003 0.53 0.003 6.251 0 12.219-1.208 17.685-3.403l-0.319 0.114c5.841-2.357 10.747-5.972 14.561-10.533l0.047-0.057c4.548-5.147 7.964-11.405 9.79-18.309l0.071-0.316c2.336-7.718 3.682-16.587 3.682-25.771 0-0.826-0.011-1.65-0.033-2.47l0.002 0.121c0.024-0.757 0.037-1.648 0.037-2.542 0-8.991-1.348-17.667-3.854-25.837l0.164 0.623z" />
<glyph unicode="&#xe933;" glyph-name="svg-3rd-party" d="M1021.459 407.147c-0.762 12.954-3.388 25.063-7.619 36.39l0.281-0.859c-7.12 19.996-20.713 36.215-38.211 46.508l-0.409 0.223c-17.047 9.582-37.342 15.398-58.959 15.832l-0.13 0.002c-15.448 0-30.896 0-46.344 0v0l-8.11 31.282c-3.090 10.814-5.794 21.628-8.496 32.441l-9.656 38.62c-9.656 38.62-20.082 82.261-34.372 124.357l-2.318 7.724c-1.932 5.406-3.476 10.814-5.794 16.22-13.385 40.853-34.837 75.883-62.645 104.745l0.080-0.084c-19.784 19.474-46.95 31.499-76.925 31.499-6.111 0-12.105-0.5-17.945-1.461l0.637 0.086c-32.062-5.608-60.486-18.099-84.75-35.922l0.558 0.39c-13.094-10.546-29.929-16.928-48.255-16.928-16.979 0-32.679 5.479-45.427 14.764l0.221-0.153c-15.152 10.735-32.438 20.321-50.753 27.927l-1.771 0.652c-13.419 5.884-29.059 9.308-45.499 9.308-33.174 0-63.092-13.942-84.213-36.287l-0.051-0.055c-21.997-22.683-39.761-49.618-51.922-79.435l-0.602-1.667c-20.094-46.599-38.767-102.623-52.892-160.43l-1.563-7.568c-8.882-32.827-17.379-66.041-25.876-99.641v0c-4.671 0.182-10.155 0.284-15.663 0.284-16.66 0-33.099-0.945-49.266-2.785l1.979 0.183c-49.909-4.341-88.779-45.928-88.779-96.593 0-5.165 0.404-10.235 1.182-15.181l-0.071 0.548c0.425-10.114 8.728-18.152 18.909-18.152 0.005 0 0.011 0 0.016 0h984.816c5.9 0.523 10.995 3.577 14.25 8.053l0.039 0.057c3.024 3.643 4.859 8.368 4.859 13.522 0 1.088-0.082 2.158-0.24 3.202l0.014-0.117zM38.187 412.168c2.163 28.494 25.066 50.995 53.54 52.518l0.142 0.007c8.667 0.657 18.773 1.031 28.965 1.031s20.298-0.375 30.302-1.111l-1.337 0.079h5.406c0.64-0.046 1.387-0.072 2.139-0.072 15.33 0 28.115 10.891 31.040 25.358l0.034 0.203c8.882 34.372 17.766 68.744 27.034 102.73 14.7 63.626 32.604 118.411 54.697 171.004l-2.559-6.868c10.982 27.030 25.983 50.21 44.53 70.029l-0.117-0.126c14.168 15.416 34.426 25.043 56.934 25.043 11.559 0 22.526-2.539 32.37-7.090l-0.478 0.198c16.919-6.814 31.407-14.459 44.984-23.376l-0.958 0.591c18.405-12.873 41.257-20.571 65.905-20.571 26.274 0 50.504 8.746 69.94 23.484l-0.289-0.21c19.301 14.105 42.324 24.375 67.291 29.181l1.066 0.171c3.596 0.652 7.735 1.025 11.961 1.025 19.668 0 37.448-8.077 50.206-21.096l0.012-0.012c23.768-24.705 42.069-54.849 52.846-88.367l0.45-1.619c0-5.020 3.476-10.042 5.020-14.676l2.704-8.11c13.517-38.62 23.558-81.875 32.827-120.881l10.042-40.937 8.496-32.827c3.476-12.744 6.952-25.49 10.042-38.62 0-5.020 3.862-8.882 3.090-6.952 1.852-3.922 4.319-7.254 7.316-10.022l0.022-0.020c4.949-3.151 10.981-5.022 17.451-5.022 0.11 0 0.222 0.001 0.332 0.002h9.252c14.29 0 28.965 0 43.641 0 0.219 0.002 0.478 0.003 0.736 0.003 14.541 0 28.249-3.572 40.292-9.886l-0.478 0.229c10.351-5.66 18.171-14.858 21.917-25.935l0.096-0.327c1.462-3.753 2.794-8.281 3.762-12.941l0.1-0.575s0-2.704 0-3.862zM897.488 280.087c-12.744 2.318-25.49 4.634-38.62 6.18-34.758 3.476-69.517 8.882-103.889 8.882h-2.704c-38.62 0-77.241-3.476-115.861-7.338-26.648-2.704-52.91-8.496-79.557-13.131-13.426-1.292-29.027-2.028-44.799-2.028s-31.374 0.736-46.769 2.177l1.97-0.149c-26.648 4.634-52.91 10.428-79.557 13.131-38.62 3.862-77.241 7.338-115.861 7.338h-5.020c-34.372 0-69.131-5.406-103.889-8.882-13.131 0-25.876-3.862-38.62-6.18-2.82-1.075-4.889-3.529-5.4-6.515l-0.008-0.050c0-13.131 0-25.876 0-38.62 0.079-2.933 1.404-5.542 3.464-7.327l0.012-0.011c19.93-15.695 33.923-38.151 38.526-63.861l0.094-0.634c7.724-26.648 13.904-53.682 20.855-80.717 9.496-36.628 39.477-64.278 76.702-70.218l0.539-0.071c21.865-4.975 47.033-7.92 72.856-8.109l0.137-0.001h11.2c56.454 0.465 104.426 36.276 122.903 86.367l0.295 0.915c12.862 28.674 21.776 61.938 25.010 96.85l0.093 1.246c0 5.020 0 10.042 0 15.448 0 10.665 8.645 19.31 19.31 19.31s19.31-8.645 19.31-19.31v0c0-5.406 0-10.428 0-15.448 2.517-35.935 10.657-69.301 23.559-100.182l-0.773 2.087c18.773-51.005 66.744-86.816 123.142-87.281h11.257c0.253-0.001 0.551-0.001 0.85-0.001 26.098 0 51.538 2.814 76.034 8.154l-2.347-0.429c37.763 6.011 67.745 33.661 77.095 69.631l0.145 0.657c6.952 27.034 13.131 54.068 20.855 80.717 4.698 26.345 18.69 48.8 38.397 64.326l0.223 0.17c2.072 1.796 3.397 4.404 3.476 7.325v0.013c0 13.131 0 25.876 0 38.62-0.232 3.041-2.033 5.613-4.587 6.929l-0.048 0.022zM452.968 206.322c0.075-0.752 0.118-1.626 0.118-2.51s-0.043-1.758-0.127-2.619l0.009 0.109v-8.496c-1.918-31.622-8.978-61.086-20.358-88.294l0.662 1.784c-13.033-37.282-47.84-63.575-88.808-63.723h-11.217c-23.111 0.234-45.472 2.895-67.008 7.739l2.125-0.401c-23.052 3.093-41.481 19.833-47.033 41.709l-0.083 0.387-8.11 31.282c-4.248 16.606-8.496 33.6-13.131 50.206-6.494 28.654-20.030 53.492-38.703 73.468l0.083-0.090h7.724l27.806 3.090c21.377 3.186 46.493 5.275 71.995 5.784l0.61 0.010h2.318c36.689 0 74.537-3.476 113.157-7.338 18.538 0 38.62-5.406 56.771-8.882l19.696-3.862h3.476c-6.375-8.111-10.677-18.133-11.947-29.080l-0.025-0.271zM822.564 173.495c-4.634-16.606-8.882-33.6-13.131-50.206l-8.11-31.282c-5.691-22.857-24.874-39.953-48.416-42.461l-0.245-0.021c-19.409-4.443-41.771-7.104-64.714-7.337l-0.167-0.001h-10.042c-40.987 0.149-75.794 26.441-88.625 63.063l-0.201 0.661c-10.883 25.52-18.076 55.106-20.043 86.11l-0.039 0.785v8.496c-0.075 0.752-0.118 1.626-0.118 2.51s0.043 1.758 0.127 2.619l-0.009-0.109c-0.238 11.052-3.515 21.292-9.023 29.976l0.141-0.238h3.476l19.696 3.862c19.696 3.476 38.62 7.338 56.771 8.882 38.62 3.862 77.241 7.338 113.157 7.338h2.318c26.115-0.518 51.231-2.606 75.864-6.181l-3.258 0.388 27.806-3.090h7.724c-19.221-19.868-33.282-44.843-39.949-72.692l-0.217-1.073z" />
<glyph unicode="&#xe934;" horiz-adv-x="673" d="M616.237 729.374c-4.182 7.1-11.789 11.789-20.491 11.789-3.339 0-6.516-0.69-9.398-1.937l0.154 0.060c-8.485-3.319-14.386-11.432-14.386-20.923 0-2.858 0.535-5.59 1.509-8.103l-0.052 0.153c12.289-27.903 19.443-60.434 19.443-94.635 0-1.727-0.018-3.45-0.054-5.169l0.004 0.257c0-142.802-115.764-258.567-258.567-258.567s-258.567 115.764-258.567 258.567v0c3.375 140.183 117.816 252.534 258.497 252.534 0.025 0 0.049 0 0.074 0h-0.004c27.342-0.354 53.532-4.741 78.178-12.589l-1.901 0.523-25.426-13.791c-6.477-4.105-10.715-11.236-10.715-19.356 0-4.132 1.098-8.008 3.017-11.353l-0.059 0.111c4.265-7.203 11.995-11.958 20.836-11.958 4.208 0 8.165 1.077 11.61 2.971l-0.125-0.063 76.709 43.094c2.729 1.727 5.020 3.881 6.846 6.393l0.049 0.071c2.157 2.087 3.794 4.698 4.706 7.629l0.034 0.128c1.215 2.524 1.925 5.489 1.925 8.618s-0.71 6.094-1.978 8.741l0.052-0.122-43.094 74.553c-3.881 7.764-11.77 13.001-20.882 13.001-5.103 0-9.824-1.643-13.66-4.429l0.067 0.046c-7.384-3.768-12.353-11.316-12.353-20.026 0-3.363 0.741-6.553 2.068-9.416l-0.058 0.139 15.514-27.58c-28.369 9.743-61.057 15.369-95.059 15.369-132.641 0-245.286-85.606-285.7-204.584l-0.626-2.126c-9.443-27.59-15.088-59.391-15.512-92.45l-0.002-0.203v-4.74c0-169.222 137.18-306.402 306.402-306.402s306.402 137.18 306.402 306.402v0c0 0.021 0 0.044 0 0.069 0 43.205-9.364 84.223-26.173 121.136l0.748-1.833z" />
<glyph unicode="&#xe935;" horiz-adv-x="673" d="M435.241 605.262c-0.002-55.215-44.764-99.975-99.979-99.975-55.217 0-99.979 44.762-99.979 99.979 0 54.913 44.272 99.487 99.070 99.975h0.046c0.258 0.002 0.562 0.004 0.866 0.004 54.915 0 99.489-44.274 99.975-99.076v-0.046z" />
<glyph unicode="&#xe936;" glyph-name="info_tooltip" d="M512 960c-282.77 0-512-229.23-512-512s229.23-512 512-512c282.77 0 512 229.23 512 512v0c0 282.77-229.23 512-512 512v0zM512 0c-247.424 0-448 200.576-448 448s200.576 448 448 448c247.424 0 448-200.576 448-448v0c0-247.424-200.576-448-448-448v0zM448 496h128v-320h-128v320zM576 656c0-35.346-28.654-64-64-64s-64 28.654-64 64c0 35.346 28.654 64 64 64s64-28.654 64-64z" />
<glyph unicode="&#xe937;" horiz-adv-x="1173" d="M896.616 728.903c-4.192 7.117-11.818 11.818-20.54 11.818-3.347 0-6.532-0.692-9.42-1.941l0.154 0.060c-8.505-3.327-14.421-11.46-14.421-20.974 0-2.865 0.536-5.604 1.513-8.122l-0.052 0.153c13.311-29.36 21.098-63.656 21.167-99.763v-0.025c0-143.861-116.623-260.484-260.484-260.484s-260.484 116.623-260.484 260.484v0c2.908 140.899 117.814 254.004 259.137 254.004 0.019 0 0.037 0 0.055 0h-0.003c27.408-0.355 53.661-4.752 78.366-12.62l-1.905 0.524-25.487-13.824c-7.42-3.889-12.396-11.536-12.396-20.346 0-3.766 0.909-7.32 2.521-10.454l-0.060 0.129c4.275-7.221 12.024-11.987 20.886-11.987 4.218 0 8.184 1.080 11.638 2.978l-0.126-0.063 76.893 43.198c2.736 1.731 5.032 3.89 6.863 6.409l0.049 0.071c2.163 2.092 3.803 4.709 4.717 7.647l0.034 0.129c1.218 2.53 1.93 5.502 1.93 8.639s-0.711 6.109-1.982 8.762l0.052-0.122-43.198 74.732c-3.939 7.248-11.496 12.084-20.182 12.084-4.176 0-8.092-1.118-11.463-3.072l0.11 0.059c-7.546-3.477-12.69-10.976-12.69-19.676 0-3.2 0.696-6.238 1.944-8.97l-0.056 0.135 15.551-27.647c-28.366 9.715-61.046 15.323-95.038 15.323-166.62 0-301.763-134.761-302.384-301.234v-4.811c0-169.628 137.51-307.138 307.138-307.138s307.138 137.51 307.138 307.138v0c-0.12 43.044-9.495 83.87-26.236 120.631l0.749-1.837z" />
<glyph unicode="&#xe938;" horiz-adv-x="1173" d="M90.972-63.35c1.168-0.046 2.538-0.073 3.916-0.073 11.729 0 23.010 1.924 33.543 5.473l-0.74-0.216c10.763 3.113 20.127 8 28.255 14.389l-0.177-0.134c7.171 6.272 12.673 14.278 15.865 23.371l0.118 0.388c3.552 8.075 5.619 17.489 5.619 27.387 0 0.243-0.001 0.486-0.004 0.729v-0.037c0.030 0.656 0.047 1.425 0.047 2.198 0 13.541-5.28 25.85-13.894 34.978l0.024-0.025c-11.026 10.46-24.98 17.937-40.506 21.078l-0.532 0.090c7.729 1.808 14.526 4.946 20.478 9.191l-0.175-0.118c5.69 3.586 10.539 7.886 14.603 12.853l0.084 0.106c3.84 4.47 6.807 9.812 8.561 15.678l0.078 0.306c1.792 5.134 2.888 11.056 3.023 17.216l0.001 0.064c0 0.082 0.001 0.18 0.001 0.278 0 9.703-1.904 18.961-5.36 27.421l0.175-0.485c-3.559 8.249-9.020 15.097-15.855 20.211l-0.129 0.092c-7.622 5.681-16.554 10.129-26.215 12.824l-0.568 0.136c-11.54 2.747-24.788 4.322-38.405 4.322-0.318 0-0.636-0.001-0.953-0.003h-80.732v-249.684zM90.972 49.397c1.747 0.163 3.777 0.256 5.829 0.256 13.952 0 26.899-4.294 37.595-11.635l-0.226 0.146c8.231-6.784 13.438-16.982 13.438-28.394 0-0.648-0.016-1.293-0.050-1.934l0.004 0.090c0.003-0.204 0.004-0.444 0.004-0.685 0-6.26-1.11-12.262-3.144-17.819l0.115 0.36c-2.371-5.529-5.575-10.256-9.51-14.262l0.006 0.007c-4.799-4.153-10.596-7.291-16.977-9.003l-0.302-0.069c-6.457-2.233-13.897-3.521-21.64-3.521-1.050 0-2.094 0.024-3.131 0.071l0.147-0.005h-58.749v86.396zM34.382 157.824h45.79c1.334 0.094 2.889 0.147 4.459 0.147 13.414 0 25.913-3.92 36.415-10.676l-0.267 0.161c8.038-7.082 13.083-17.398 13.083-28.893 0-1.082-0.044-2.153-0.133-3.213l0.009 0.139c0.003-0.198 0.005-0.431 0.005-0.665 0-5.97-1.111-11.681-3.137-16.937l0.109 0.322c-2.257-5.447-5.811-9.972-10.286-13.333l-0.081-0.059c-4.787-3.727-10.396-6.679-16.48-8.542l-0.367-0.097c-7.173-1.923-15.409-3.026-23.903-3.026-0.253 0-0.506 0.001-0.759 0.003h-43.159z" />
<glyph unicode="&#xe939;" glyph-name="Arrow-Circle" horiz-adv-x="1135" d="M1010.042 597.77c-5.845 12.943-18.642 21.788-33.504 21.788-5.055 0-9.87-1.022-14.249-2.872l0.24 0.090c-13.486-5.168-22.888-18.006-22.888-33.042 0-4.723 0.928-9.23 2.611-13.348l-0.086 0.236c21.012-45.8 33.261-99.363 33.261-155.785 0-0.592-0.002-1.181-0.004-1.773v0.090c0.059-2.596 0.094-5.657 0.094-8.726 0-224.914-182.329-407.244-407.244-407.244s-407.244 182.329-407.244 407.244c0 221.778 177.281 402.153 397.863 407.139l0.464 0.008h4.752c43.064-0.558 84.315-7.465 123.131-19.827l-2.994 0.824-40.045-21.719c-11.619-5.937-19.436-17.822-19.436-31.532 0-5.831 1.413-11.331 3.918-16.177l-0.092 0.197c6.518-11.465 18.652-19.072 32.561-19.072 6.742 0 13.068 1.787 18.527 4.915l-0.182-0.096 126.925 65.159c4.555 2.063 8.26 5.331 10.8 9.399l0.061 0.102c3.414 3.508 5.994 7.846 7.411 12.679l0.054 0.215c1.154 2.979 1.823 6.429 1.823 10.033 0 6.161-1.955 11.864-5.277 16.526l0.059-0.088-67.875 118.101c-6.558 11.304-18.604 18.786-32.398 18.786-6.535 0-12.677-1.679-18.021-4.631l0.192 0.098c-11.812-6.061-19.754-18.159-19.754-32.109 0-5.596 1.277-10.894 3.558-15.617l-0.094 0.215 24.435-42.761c-43.043 13.166-92.533 20.841-143.788 21.042h-0.107c-2.237 0.038-4.877 0.059-7.524 0.059-259.796 0-470.891-208.516-475.056-467.32l-0.004-0.393c0-266.523 216.061-482.584 482.584-482.584s482.584 216.061 482.584 482.584v0c-0.711 65.111-15.395 126.62-41.184 181.905l1.137-2.718z" />
</font>
</defs>
</svg>
